<svg xmlns="http://www.w3.org/2000/svg" width="45.143" height="38.128" viewBox="0 0 45.143 38.128">
  <g id="Group_408" data-name="Group 408" transform="translate(-6.5 -12.949)">
    <path id="Path_207" data-name="Path 207" d="M48.957,24.58A5.923,5.923,0,0,0,47.011,20.2a4.721,4.721,0,1,0-7.968,0A5.916,5.916,0,0,0,37.1,24.58V28H48.957V24.58Zm-5.93-10a3.084,3.084,0,0,1,2.254,5.2h0a3.076,3.076,0,0,1-4.507,0l-.007-.007a3.084,3.084,0,0,1,2.259-5.189Zm4.3,11.787h-8.6V24.58A4.292,4.292,0,0,1,40.139,21.4a4.7,4.7,0,0,0,5.777,0,4.3,4.3,0,0,1,1.41,3.182v1.788Z" transform="translate(-13.956)" fill="#222"/>
    <path id="Path_208" data-name="Path 208" d="M17.15,60.1a4.721,4.721,0,1,0-8.705,2.527A5.919,5.919,0,0,0,6.5,67.012V70.43H18.359V67.012a5.919,5.919,0,0,0-1.946-4.384A4.69,4.69,0,0,0,17.15,60.1Zm-4.721-3.09a3.089,3.089,0,0,1,0,6.179,3.06,3.06,0,0,1-2.254-.983l0,0a3.085,3.085,0,0,1,2.258-5.191Zm4.3,10V68.8h-8.6V67.012A4.3,4.3,0,0,1,9.54,63.829a4.7,4.7,0,0,0,5.778,0A4.3,4.3,0,0,1,16.727,67.012Z" transform="translate(0 -19.353)" fill="#222"/>
    <path id="Path_209" data-name="Path 209" d="M77.61,62.627a4.721,4.721,0,1,0-7.968,0A5.917,5.917,0,0,0,67.7,67.011v3.418H79.556V67.011A5.917,5.917,0,0,0,77.61,62.627Zm-3.984-5.616a3.086,3.086,0,0,1,2.254,5.2,3.076,3.076,0,0,1-4.508,0l-.009-.009a3.084,3.084,0,0,1,2.262-5.187Zm4.3,11.787H69.329V67.011a4.294,4.294,0,0,1,1.409-3.182,4.7,4.7,0,0,0,5.778,0,4.294,4.294,0,0,1,1.409,3.183V68.8Z" transform="translate(-27.912 -19.353)" fill="#222"/>
    <path id="Path_210" data-name="Path 210" d="M17.533,46.39H49.187v1.416h1.632V44.758H34.175V43.343H32.544v1.415H15.9v3.048h1.632Z" transform="translate(-4.288 -13.863)" fill="#222"/>
  </g>
</svg>
