<svg xmlns="http://www.w3.org/2000/svg" width="45.819" height="45.819" viewBox="0 0 45.819 45.819">
  <g id="noun_page_3283008" transform="translate(-1.5 -1.5)">
    <path id="Path_397" data-name="Path 397" d="M47.082,11.944,36.876,1.737a.743.743,0,0,0-.553-.237H13.761A4.377,4.377,0,0,0,9.4,5.861V9.574H5.861A4.377,4.377,0,0,0,1.5,13.934V42.959a4.377,4.377,0,0,0,4.361,4.361h29.2a4.377,4.377,0,0,0,4.361-4.361V39.246h3.539a4.377,4.377,0,0,0,4.361-4.361V12.5a.743.743,0,0,0-.237-.553ZM45.739,13.35h-8.69V4.2l8.69,8.627Zm-7.9,29.672A2.781,2.781,0,0,1,35.059,45.8H5.861A2.781,2.781,0,0,1,3.08,42.959V13.934a2.781,2.781,0,0,1,2.781-2.781H27.57v9.48a.79.79,0,0,0,.79.79h9.48V42.959ZM29.15,12.275l7.5,7.5h-7.5ZM42.9,37.666H39.419V20.476a1.011,1.011,0,0,0,0-.111.758.758,0,0,0-.19-.348L28.976,9.811a.758.758,0,0,0-.348-.19H10.98V5.861A2.781,2.781,0,0,1,13.761,3.08h22.23a.79.79,0,0,0-.521.79V14.077a.79.79,0,0,0,.79.79h9.48V34.885a2.781,2.781,0,0,1-2.781,2.781Z" transform="translate(0 0)"/>
  </g>
</svg>
