<svg xmlns="http://www.w3.org/2000/svg" width="45.713" height="43.521" viewBox="0 0 45.713 43.521">
  <g id="noun_AI_1235930" transform="translate(-13.784 -18.342)">
    <g id="Group_353" data-name="Group 353" transform="translate(13.784 18.342)">
      <path id="Path_174" data-name="Path 174" d="M33.326,18.342c-.067,0-.131.007-.2.01-.016,0-.031-.01-.048-.01a5.835,5.835,0,0,0-5.761,5.488,5.677,5.677,0,0,0-1.086-.108,6.013,6.013,0,0,0-5.945,6.066,6.076,6.076,0,0,0,1.519,4.05,5.763,5.763,0,0,0-1.073.348A5.9,5.9,0,0,0,17.1,39.659c0,.007,0,.014,0,.02,0,.032,0,.063,0,.095A6.048,6.048,0,0,0,21.777,45.7a6.094,6.094,0,0,0-1.487,4.012,6.013,6.013,0,0,0,5.945,6.065,5.877,5.877,0,0,0,1.148-.113c0,.042,0,.086,0,.133a5.946,5.946,0,1,0,11.89,0V24.806C39.271,21.362,36.493,18.342,33.326,18.342ZM37.911,55.8a4.586,4.586,0,1,1-9.17,0,1.447,1.447,0,0,1,.1-.62c.027-.08.058-.175.092-.285a5.92,5.92,0,0,0,2.957-5.143.68.68,0,1,0-1.36,0,4.422,4.422,0,1,1-8.841,0,.659.659,0,0,0-.034-.167,4.7,4.7,0,0,1,2.172-3.87.679.679,0,0,0,.28-.792.671.671,0,0,0-.7-.46c-.12.01-.241.018-.363.018a4.651,4.651,0,0,1-4.585-4.7,4.718,4.718,0,0,1,2.773-4.321,4.275,4.275,0,0,1,1.648-.331A4.485,4.485,0,0,1,27.3,39.658a.68.68,0,0,0,1.36,0,5.875,5.875,0,0,0-4.723-5.794c-.014-.01-.023-.024-.038-.033a4.726,4.726,0,0,1,2.335-8.749,4.393,4.393,0,0,1,1.158.175,5.822,5.822,0,0,0,5.69,4.882.68.68,0,0,0,0-1.36,4.462,4.462,0,0,1-4.368-3.868.753.753,0,0,0,.038-.273c0-.075-.011-.152-.011-.229A4.652,4.652,0,0,1,33.325,19.7c2.442,0,4.585,2.385,4.585,5.1V55.8Z" transform="translate(-17.099 -18.342)" fill="#222"/>
      <path id="Path_175" data-name="Path 175" d="M73.884,39.659a5.9,5.9,0,0,0-3.637-5.473,5.764,5.764,0,0,0-1.073-.348,6.093,6.093,0,0,0-4.426-10.116,5.718,5.718,0,0,0-1.172.122,6,6,0,0,0-5.92-5.5c-3.167,0-5.945,3.02-5.945,6.464V55.8a5.946,5.946,0,1,0,11.89,0c0-.046,0-.091,0-.133a5.877,5.877,0,0,0,1.148.113,6.013,6.013,0,0,0,5.945-6.065A6.089,6.089,0,0,0,69.206,45.7a6.048,6.048,0,0,0,4.678-5.926c0-.032,0-.063,0-.095C73.88,39.672,73.884,39.666,73.884,39.659ZM57.658,55.771A1.367,1.367,0,1,1,59.024,54.4,1.368,1.368,0,0,1,57.658,55.771ZM64.776,50.7a1.367,1.367,0,1,1,1.366-1.366A1.368,1.368,0,0,1,64.776,50.7Zm3.164-6.225c-.122,0-.243-.009-.363-.018a.68.68,0,0,0-.423,1.251,4.736,4.736,0,0,1-1.7,8.644V51.966a2.727,2.727,0,1,0-1.36,0v2.4a4.485,4.485,0,0,1-1.136-.318.68.68,0,0,0-.921.82c.037.124.071.223.1.31a1.447,1.447,0,0,1,.1.62,4.672,4.672,0,0,1-3.9,4.648v-3.41a2.727,2.727,0,1,0-1.36,0v3.41A4.672,4.672,0,0,1,53.072,55.8V41.811h1.955a2.728,2.728,0,1,0,0-1.36H53.072V31.194h8.384a2.727,2.727,0,1,0,0-1.36H59.231V27.126a2.727,2.727,0,1,0-1.36,0v2.708h-4.8V24.8c0-2.718,2.142-5.1,4.585-5.1a4.652,4.652,0,0,1,4.585,4.706c0,.077-.006.154-.016.294a.68.68,0,0,0,.921.68,4.475,4.475,0,0,1,1.6-.3,4.726,4.726,0,0,1,2.335,8.749c-.014.01-.024.023-.038.033a5.874,5.874,0,0,0-4.723,5.794.68.68,0,0,0,1.36,0A4.485,4.485,0,0,1,68.1,35.121a4.3,4.3,0,0,1,1.648.33,4.718,4.718,0,0,1,2.773,4.321A4.649,4.649,0,0,1,67.94,44.477ZM56.291,41.131A1.367,1.367,0,1,1,57.658,42.5,1.368,1.368,0,0,1,56.291,41.131Zm2.261-15.27A1.367,1.367,0,1,1,59.918,24.5,1.368,1.368,0,0,1,58.552,25.862Zm4.168,4.653a1.367,1.367,0,1,1,1.367,1.366A1.368,1.368,0,0,1,62.72,30.514Z" transform="translate(-28.172 -18.342)" fill="#222"/>
    </g>
  </g>
</svg>
