<svg xmlns="http://www.w3.org/2000/svg" width="41.31" height="43.106" viewBox="0 0 41.31 43.106">
  <g id="noun_Idea_3684325" transform="translate(-7 -6)">
    <path id="Path_123" data-name="Path 123" d="M27.822,8.015a13.459,13.459,0,0,0-8.034,23.738,6.949,6.949,0,0,1,2.4,5.354v6.814a.9.9,0,0,0,.9.9h.9a4.49,4.49,0,0,0,8.98,0h.9a.9.9,0,0,0,.9-.9V37.106a7.024,7.024,0,0,1,2.433-5.383A13.463,13.463,0,0,0,27.822,8.015Zm5.139,29.091v1.427h-8.98V37.108a9.331,9.331,0,0,0-.1-1.269h9.175A9.189,9.189,0,0,0,32.961,37.106Zm-4.49,10.408a2.7,2.7,0,0,1-2.694-2.694h5.388A2.7,2.7,0,0,1,28.471,47.514Zm3.592-4.49H23.981V40.329h8.98v2.694Zm3.964-12.67a8.636,8.636,0,0,0-2.53,3.689H23.451a8.463,8.463,0,0,0-2.506-3.663,11.553,11.553,0,0,1-4.1-9.983A11.688,11.688,0,0,1,27.906,9.81a11.664,11.664,0,0,1,8.121,20.544Z" transform="translate(-0.816 -0.204)" fill="#222"/>
    <path id="Path_124" data-name="Path 124" d="M7.9,22.8H11.49a.9.9,0,1,0,0-1.8H7.9a.9.9,0,1,0,0,1.8Z" transform="translate(0 -1.529)" fill="#222"/>
    <path id="Path_125" data-name="Path 125" d="M47,21.9a.9.9,0,0,0,.9.9H51.49a.9.9,0,0,0,0-1.8H47.9A.9.9,0,0,0,47,21.9Z" transform="translate(-4.079 -1.529)" fill="#222"/>
    <path id="Path_126" data-name="Path 126" d="M15.533,6.263a.9.9,0,0,0-1.27,1.27l2.54,2.54a.9.9,0,0,0,1.27-1.27Z" transform="translate(-0.714)" fill="#222"/>
    <path id="Path_127" data-name="Path 127" d="M45.722,38.62a.9.9,0,0,0,.635-1.533l-2.54-2.54a.9.9,0,1,0-1.27,1.27l2.54,2.54A.9.9,0,0,0,45.722,38.62Z" transform="translate(-3.598 -2.884)" fill="#222"/>
    <path id="Path_128" data-name="Path 128" d="M43.7,10.073l2.54-2.54a.9.9,0,0,0-1.27-1.27L42.435,8.8a.9.9,0,1,0,1.27,1.27Z" transform="translate(-3.586)" fill="#222"/>
    <path id="Path_129" data-name="Path 129" d="M14.151,38.357a.9.9,0,0,0,1.27,0l2.54-2.54a.9.9,0,0,0-1.27-1.27l-2.54,2.54A.9.9,0,0,0,14.151,38.357Z" transform="translate(-0.702 -2.884)" fill="#222"/>
  </g>
</svg>
