<svg id="Group_543" data-name="Group 543" xmlns="http://www.w3.org/2000/svg" width="42.354" height="44.495" viewBox="0 0 42.354 44.495">
  <g id="Group_530" data-name="Group 530" transform="translate(0 16.42)">
    <g id="Group_529" data-name="Group 529">
      <path id="Path_287" data-name="Path 287" d="M161.722,405.385v24.657c0,.032-.016.162.005.005a.77.77,0,0,1-.022.108c-.011.049-.108.325-.043.179a1.691,1.691,0,0,1-.119.217.491.491,0,0,1-.06.087c.081-.119.022-.027-.005,0-.06.06-.114.114-.173.168-.087.081.1-.065,0,0-.049.032-.1.065-.146.092-.033.016-.065.033-.092.049-.108.054.114-.033,0,0l-.244.065c-.038.011-.146.005,0,0-.038,0-.076.005-.114.005h-.038c-.493.005-.986,0-1.479,0H123.665c-.049,0-.1-.005-.146-.005.146.005-.043-.011-.1-.027s-.249-.087-.108-.027c-.087-.038-.162-.092-.244-.135-.125-.07-.033-.022-.005.005a.831.831,0,0,1-.1-.092c-.027-.027-.168-.19-.119-.125s-.011-.022-.016-.033c-.022-.038-.049-.081-.07-.119s-.043-.081-.065-.125c.033.076.022.07.005-.005a2.369,2.369,0,0,1-.065-.282c.022.146.005-.027.005-.076v-.081c-.005-.9,0-1.809,0-2.714V405.4c-.406.233-.812.466-1.224.7l4.436,3.022,2.194,1.5q2.364,1.609,4.734,3.223,2.868,1.95,5.736,3.905c1.067.726,2.118,1.5,3.212,2.188l.049.033a.792.792,0,0,0,.818,0l2.654-1.809q2.811-1.909,5.617-3.824l5.048-3.44c.677-.46,1.354-.926,2.037-1.387q2.446-1.666,4.886-3.331c.038-.027.081-.054.119-.081a.831.831,0,0,0,.293-1.11.82.82,0,0,0-1.11-.293l-4.436,3.022-2.194,1.495q-2.364,1.609-4.734,3.223-2.868,1.95-5.736,3.905-1.072.731-2.15,1.462c-.352.238-.726.466-1.062.726l-.049.033h.818l-2.654-1.809q-2.811-1.909-5.617-3.824l-5.048-3.44c-.677-.46-1.354-.926-2.037-1.387q-2.446-1.666-4.886-3.331c-.038-.027-.081-.054-.119-.081a.821.821,0,0,0-1.224.7v24.537a2.711,2.711,0,0,0,2.595,2.7c.493.022.986,0,1.479,0h35.262c.184,0,.374.005.558-.011a2.707,2.707,0,0,0,2.448-2.7c.005-.856,0-1.717,0-2.573V405.391a.822.822,0,0,0-.812-.812A.813.813,0,0,0,161.722,405.385Z" transform="translate(-121 -404.565)"/>
    </g>
  </g>
  <g id="Group_532" data-name="Group 532" transform="translate(0.008 11.633)">
    <g id="Group_531" data-name="Group 531">
      <path id="Path_288" data-name="Path 288" d="M126.875,317v8.694c.406-.233.812-.466,1.224-.7q-2.511-1.706-5.021-3.418c-.238-.162-.477-.325-.71-.482.054.428.108.85.163,1.278q2.5-2.1,5.01-4.187c.244-.2.482-.4.726-.607a.817.817,0,0,0,0-1.148.828.828,0,0,0-1.148,0q-2.5,2.1-5.01,4.187c-.244.2-.482.4-.726.607a.824.824,0,0,0,.163,1.278q2.511,1.706,5.021,3.418c.238.162.477.325.71.482a.821.821,0,0,0,1.224-.7V317a.812.812,0,1,0-1.625,0Z" transform="translate(-121.141 -316.185)"/>
    </g>
  </g>
  <g id="Group_534" data-name="Group 534" transform="translate(14.248 0)">
    <g id="Group_533" data-name="Group 533">
      <path id="Path_289" data-name="Path 289" d="M397.062,105.933H384.874c.19.46.385.926.574,1.387l4.539-3.792c.1-.081.19-.162.287-.244.016-.011.027-.022.043-.033-.076.054.146-.081.179-.1s.141-.06.027-.016c.076-.027.152-.049.228-.07.152-.038.06-.016.016-.011a1.177,1.177,0,0,1,.2-.011,1.522,1.522,0,0,1,.157.005c.135.011-.168-.054.06.011.043.016.3.1.184.049a1.453,1.453,0,0,1,.179.1c.022.016.168.114.07.043.054.043.1.087.157.13.829.693,1.657,1.381,2.481,2.075.742.617,1.484,1.24,2.226,1.858a.833.833,0,0,0,1.148,0,.822.822,0,0,0,0-1.148l-4.642-3.878a3.187,3.187,0,0,0-1.538-.823,2.884,2.884,0,0,0-2.378.7c-.812.677-1.62,1.354-2.432,2.031-.785.655-1.565,1.311-2.351,1.966a.82.82,0,0,0,.574,1.387h12.187a.822.822,0,0,0,.813-.812A.8.8,0,0,0,397.062,105.933Z" transform="translate(-384.037 -101.423)"/>
    </g>
  </g>
  <g id="Group_536" data-name="Group 536" transform="translate(34.997 11.638)">
    <g id="Group_535" data-name="Group 535">
      <path id="Path_290" data-name="Path 290" d="M773.232,321.178q-2.511,1.706-5.021,3.418c-.238.163-.477.325-.71.482.406.233.813.466,1.224.7v-8.694c-.46.19-.926.385-1.387.574q2.5,2.1,5.01,4.187c.244.2.482.4.726.607a.833.833,0,0,0,1.148,0,.822.822,0,0,0,0-1.148q-2.5-2.1-5.01-4.187c-.244-.2-.482-.4-.726-.607a.828.828,0,0,0-.888-.168.818.818,0,0,0-.5.742v8.694a.821.821,0,0,0,1.224.7q2.511-1.706,5.021-3.418c.238-.163.477-.325.71-.482a.831.831,0,0,0,.292-1.11A.82.82,0,0,0,773.232,321.178Z" transform="translate(-767.1 -316.28)"/>
    </g>
  </g>
  <g id="Group_538" data-name="Group 538" transform="translate(5.739 4.508)">
    <g id="Group_537" data-name="Group 537">
      <path id="Path_291" data-name="Path 291" d="M256.208,186.462v14.825c.135-.233.271-.466.4-.7q-2.478,1.69-4.962,3.38-3.924,2.673-7.854,5.352c-.6.412-1.208.823-1.809,1.235h.818q-2.478-1.69-4.962-3.38-3.924-2.673-7.854-5.352c-.6-.412-1.208-.823-1.809-1.235.135.233.271.466.4.7v-13.97c0-.287.005-.569,0-.856,0-.1.043-.065-.005,0,.005-.005.054-.114,0-.038s.022-.038.033-.06c.049-.076-.016.011-.027.022.033-.033.065-.07.1-.1-.011.011-.1.065-.022.027.135-.07.027-.049.032-.016,0-.016.195-.022-.005-.011l.076-.005h25.122c.7,0,1.408.005,2.107,0,.038,0,.141-.011.06,0-.1.016.033-.016.033.016a.592.592,0,0,1-.06-.033l.065.033c.011-.011.152.119.005-.005a.976.976,0,0,1,.076.07c.049.076-.016-.016-.022-.027.022.038.049.081.07.125-.038-.13,0,0-.005,0h0a.813.813,0,0,0,1.625,0,1.838,1.838,0,0,0-1.836-1.8c-.135-.005-.265,0-.4,0h-26.72a1.924,1.924,0,0,0-1.338.482,1.955,1.955,0,0,0-.58,1.506v14.072c0,.184-.005.374,0,.558a1.023,1.023,0,0,0,.569.829c.623.423,1.24.845,1.863,1.268q3.469,2.364,6.944,4.729,2.681,1.828,5.362,3.651c.1.065.195.13.287.195a.792.792,0,0,0,.818,0l4.333-2.952q3.754-2.559,7.513-5.119c.791-.536,1.582-1.078,2.372-1.614.135-.092.271-.179.406-.276a1.044,1.044,0,0,0,.406-1.024V186.456a.822.822,0,0,0-.812-.812A.838.838,0,0,0,256.208,186.462Z" transform="translate(-226.956 -184.656)"/>
    </g>
  </g>
  <g id="Group_540" data-name="Group 540" transform="translate(12.187 11.623)">
    <g id="Group_539" data-name="Group 539">
      <path id="Path_292" data-name="Path 292" d="M346.8,317.625h8.233a.813.813,0,0,0,0-1.625H346.8a.813.813,0,1,0,0,1.625Z" transform="translate(-345.985 -316)"/>
    </g>
  </g>
  <g id="Group_542" data-name="Group 542" transform="translate(12.187 17.69)">
    <g id="Group_541" data-name="Group 541">
      <path id="Path_293" data-name="Path 293" d="M346.8,429.625h16.358a.813.813,0,0,0,0-1.625H346.8a.813.813,0,1,0,0,1.625Z" transform="translate(-345.985 -428)"/>
    </g>
  </g>
</svg>
