<svg xmlns="http://www.w3.org/2000/svg" width="53.15" height="45.819" viewBox="0 0 53.15 45.819">
  <g id="noun_market_3139325" transform="translate(-21 -25)">
    <g id="Group_826" data-name="Group 826" transform="translate(21 25)">
      <g id="Group_824" data-name="Group 824" transform="translate(0 6.002)">
        <g id="Group_817" data-name="Group 817" transform="translate(4.105 7.918)">
          <path id="Path_385" data-name="Path 385" d="M70.42,72.089H25.48V43.966l1.091.22a4.336,4.336,0,0,0,.852.082,4.153,4.153,0,0,0,4.215-4.078h1.833a4.218,4.218,0,0,0,8.431,0h1.833a4.218,4.218,0,0,0,8.431,0H54a4.218,4.218,0,0,0,8.431,0h1.833a4.147,4.147,0,0,0,4.215,4.078,4.311,4.311,0,0,0,.843-.082l1.1-.22ZM27.313,70.257H68.587V46.1a6.091,6.091,0,0,1-5.242-2.786,6.12,6.12,0,0,1-10.264,0,6.12,6.12,0,0,1-10.264,0,6.12,6.12,0,0,1-10.264,0A6.091,6.091,0,0,1,27.313,46.1V70.257Z" transform="translate(-25.48 -40.19)"/>
        </g>
        <g id="Group_823" data-name="Group 823">
          <g id="Group_818" data-name="Group 818">
            <path id="Path_386" data-name="Path 386" d="M27.6,45.378H26.5a5.5,5.5,0,0,1-5.5-5.5V31.55H33.1v8.33A5.509,5.509,0,0,1,27.6,45.378Zm-4.765-12v6.5A3.665,3.665,0,0,0,26.5,43.546h1.1a3.665,3.665,0,0,0,3.666-3.666v-6.5Z" transform="translate(-21 -31.55)"/>
          </g>
          <g id="Group_819" data-name="Group 819" transform="translate(10.264)">
            <path id="Path_387" data-name="Path 387" d="M38.8,45.378H37.7a5.5,5.5,0,0,1-5.5-5.5V31.55H44.3v8.33A5.509,5.509,0,0,1,38.8,45.378Zm-4.765-12v6.5A3.665,3.665,0,0,0,37.7,43.546h1.1a3.665,3.665,0,0,0,3.666-3.666v-6.5Z" transform="translate(-32.2 -31.55)"/>
          </g>
          <g id="Group_820" data-name="Group 820" transform="translate(20.527)">
            <path id="Path_388" data-name="Path 388" d="M50,45.378H48.9a5.5,5.5,0,0,1-5.5-5.5V31.55H55.5v8.33A5.509,5.509,0,0,1,50,45.378Zm-4.765-12v6.5A3.665,3.665,0,0,0,48.9,43.546H50a3.665,3.665,0,0,0,3.666-3.666v-6.5Z" transform="translate(-43.4 -31.55)"/>
          </g>
          <g id="Group_821" data-name="Group 821" transform="translate(30.791)">
            <path id="Path_389" data-name="Path 389" d="M61.2,45.378H60.1a5.5,5.5,0,0,1-5.5-5.5V31.55H66.7v8.33A5.509,5.509,0,0,1,61.2,45.378Zm-4.765-12v6.5A3.665,3.665,0,0,0,60.1,43.546h1.1a3.665,3.665,0,0,0,3.666-3.666v-6.5Z" transform="translate(-54.6 -31.55)"/>
          </g>
          <g id="Group_822" data-name="Group 822" transform="translate(41.054)">
            <path id="Path_390" data-name="Path 390" d="M72.4,45.378H71.3a5.5,5.5,0,0,1-5.5-5.5V31.55H77.9v8.33A5.509,5.509,0,0,1,72.4,45.378Zm-4.765-12v6.5A3.665,3.665,0,0,0,71.3,43.546h1.1a3.665,3.665,0,0,0,3.666-3.666v-6.5Z" transform="translate(-65.8 -31.55)"/>
          </g>
        </g>
      </g>
      <g id="Group_825" data-name="Group 825">
        <path id="Path_391" data-name="Path 391" d="M74.15,32.835H21V27.749A2.757,2.757,0,0,1,23.749,25H71.4a2.757,2.757,0,0,1,2.749,2.749ZM22.833,31H72.318V27.749a.919.919,0,0,0-.916-.916H23.749a.919.919,0,0,0-.916.916Z" transform="translate(-21 -25)"/>
      </g>
    </g>
    <g id="Group_827" data-name="Group 827" transform="translate(30.622 47.91)">
      <path id="Path_392" data-name="Path 392" d="M45.246,64.662h-11A2.757,2.757,0,0,1,31.5,61.913V52.749A2.757,2.757,0,0,1,34.249,50h11a2.757,2.757,0,0,1,2.749,2.749v9.164A2.757,2.757,0,0,1,45.246,64.662Zm-11-12.829a.919.919,0,0,0-.916.916v9.164a.919.919,0,0,0,.916.916h11a.919.919,0,0,0,.916-.916V52.749a.919.919,0,0,0-.916-.916Z" transform="translate(-31.5 -50)"/>
    </g>
    <g id="Group_828" data-name="Group 828" transform="translate(49.866 46.993)">
      <path id="Path_393" data-name="Path 393" d="M67.162,72.826H52.5V51.749A2.757,2.757,0,0,1,55.249,49h9.164a2.757,2.757,0,0,1,2.749,2.749ZM54.333,70.993h11V51.749a.919.919,0,0,0-.916-.916H55.249a.919.919,0,0,0-.916.916Z" transform="translate(-52.5 -49)"/>
    </g>
  </g>
</svg>
