<svg id="noun_Pie_Chart_874807" data-name="noun_Pie Chart_874807" xmlns="http://www.w3.org/2000/svg" width="45.819" height="45.819" viewBox="0 0 45.819 45.819">
  <g id="Group_527" data-name="Group 527">
    <path id="Path_282" data-name="Path 282" d="M22.91,0a22.91,22.91,0,1,0,22.91,22.91A22.91,22.91,0,0,0,22.91,0ZM44.14,22.867a21.233,21.233,0,0,1-.393,4.066l-19.754-4.7L28.765,2.491A21.224,21.224,0,0,1,44.14,22.867ZM22.952,1.679a21.2,21.2,0,0,1,4.138.407l-4.592,19L9.378,6.613A21.091,21.091,0,0,1,22.952,1.679Zm0,42.374A21.176,21.176,0,0,1,8.1,7.77L22.494,23.643l20.855,4.965A21.224,21.224,0,0,1,22.952,44.053Z"/>
  </g>
</svg>
