<svg id="seo-tag" xmlns="http://www.w3.org/2000/svg" width="43.438" height="43.438" viewBox="0 0 43.438 43.438">
  <g id="Group_270" data-name="Group 270">
    <g id="Group_269" data-name="Group 269">
      <path id="Path_133" data-name="Path 133" d="M41.753,20.612,23.165,2.025A6.866,6.866,0,0,0,18.278,0H3.949A3.953,3.953,0,0,0,0,3.949V18.278a6.866,6.866,0,0,0,2.025,4.887L20.612,41.753a5.754,5.754,0,0,0,8.137,0l13-13a5.754,5.754,0,0,0,0-8.137Zm-1.4,6.741-13,13a3.911,3.911,0,0,1-5.345,0L3.421,21.769a4.905,4.905,0,0,1-1.446-3.491V3.949A1.977,1.977,0,0,1,3.949,1.975H18.278a4.905,4.905,0,0,1,3.491,1.446L40.357,22.008a3.78,3.78,0,0,1,0,5.345Z" fill="#222"/>
      <path id="Path_134" data-name="Path 134" d="M46.615,42.667a3.949,3.949,0,1,0,3.949,3.949A3.953,3.953,0,0,0,46.615,42.667Zm0,5.923a1.974,1.974,0,1,1,1.974-1.975A1.977,1.977,0,0,1,46.615,48.59Z" transform="translate(-38.717 -38.718)" fill="#222"/>
      <path id="Path_135" data-name="Path 135" d="M127.774,130.854a2.965,2.965,0,0,0,0-4.189.987.987,0,0,1,0-1.4l.7-.7a1.009,1.009,0,0,1,1.4,0,.984.984,0,0,1,.289.7.975.975,0,0,1-.289.7.988.988,0,1,0,1.4,1.4,2.962,2.962,0,0,0,0-4.189,3.035,3.035,0,0,0-4.188,0l-.7.7a2.967,2.967,0,0,0,0,4.188.99.99,0,0,1,0,1.4l-.7.7a1.009,1.009,0,0,1-1.4,0,.984.984,0,0,1-.289-.7.973.973,0,0,1,.289-.7.988.988,0,1,0-1.4-1.4,2.962,2.962,0,1,0,4.188,4.189Z" transform="translate(-110.727 -111.014)" fill="#222"/>
      <path id="Path_136" data-name="Path 136" d="M180.8,180.8a.987.987,0,0,0,0-1.4l-1.4-1.4,2.094-2.094,2.095,2.094a.987.987,0,0,0,1.4-1.4l-2.793-2.792a.987.987,0,0,0-1.4,0l-6.98,6.98a.987.987,0,0,0,0,1.4l2.792,2.793a.987.987,0,0,0,1.4-1.4l-2.094-2.095,2.094-2.094,1.4,1.4a.987.987,0,0,0,1.4,0Z" transform="translate(-157.47 -157.471)" fill="#222"/>
      <path id="Path_137" data-name="Path 137" d="M247.781,243.583h0l-4.19,4.189a2.962,2.962,0,0,0,4.19,4.188l4.188-4.188a2.962,2.962,0,1,0-4.188-4.19Zm2.792,2.794-4.188,4.188a.987.987,0,0,1-1.4-1.4l4.189-4.188a.987.987,0,1,1,1.4,1.4Z" transform="translate(-220.262 -220.254)" fill="#222"/>
    </g>
  </g>
</svg>
