<svg id="web-programming" xmlns="http://www.w3.org/2000/svg" width="48.955" height="43.192" viewBox="0 0 48.955 43.192">
  <path id="Path_144" data-name="Path 144" d="M121.037,191.512a.805.805,0,0,1-.523-.193l-5.23-4.453a.809.809,0,0,1,0-1.231l5.23-4.453a.808.808,0,1,1,1.048,1.23l-4.507,3.838,4.507,3.838a.808.808,0,0,1-.525,1.424Zm0,0" transform="translate(-101.722 -160.092)" fill="#222"/>
  <path id="Path_145" data-name="Path 145" d="M250.516,191.512a.809.809,0,0,1-.525-1.424l4.507-3.838-4.507-3.838a.808.808,0,0,1,1.048-1.23l5.23,4.453a.809.809,0,0,1,0,1.231l-5.23,4.453A.8.8,0,0,1,250.516,191.512Zm0,0" transform="translate(-220.876 -160.092)" fill="#222"/>
  <path id="Path_146" data-name="Path 146" d="M189.763,170.116a.822.822,0,0,1-.168-.018.808.808,0,0,1-.624-.958l3.259-15.476a.808.808,0,1,1,1.582.333l-3.259,15.476A.808.808,0,0,1,189.763,170.116Zm0,0" transform="translate(-167.137 -135.356)" fill="#222"/>
  <path id="Path_147" data-name="Path 147" d="M43.528,43.192H5.427A5.433,5.433,0,0,1,0,37.765V5.427A5.433,5.433,0,0,1,5.427,0h38.1a5.433,5.433,0,0,1,5.427,5.427V37.765A5.433,5.433,0,0,1,43.528,43.192ZM5.427,1.616a3.815,3.815,0,0,0-3.81,3.81V37.765a3.815,3.815,0,0,0,3.81,3.81h38.1a3.815,3.815,0,0,0,3.81-3.81V5.427a3.815,3.815,0,0,0-3.81-3.81Zm0,0" fill="#222"/>
  <path id="Path_148" data-name="Path 148" d="M48.146,99.706H.808a.808.808,0,1,1,0-1.616H48.146a.808.808,0,1,1,0,1.616Zm0,0" transform="translate(0 -86.764)" fill="#222"/>
  <path id="Path_149" data-name="Path 149" d="M100.007,39.4a2.558,2.558,0,1,1,2.558-2.558A2.561,2.561,0,0,1,100.007,39.4Zm0-3.5a.941.941,0,1,0,.941.941A.942.942,0,0,0,100.007,35.905Zm0,0" transform="translate(-86.198 -30.33)" fill="#222"/>
  <path id="Path_150" data-name="Path 150" d="M31.944,39.19A2.558,2.558,0,1,1,34.5,36.632,2.561,2.561,0,0,1,31.944,39.19Zm0-3.5a.941.941,0,1,0,.941.941A.943.943,0,0,0,31.944,35.691Zm0,0" transform="translate(-25.994 -30.14)" fill="#222"/>
  <path id="Path_151" data-name="Path 151" d="M168.073,39.619a2.557,2.557,0,1,1,2.558-2.558A2.56,2.56,0,0,1,168.073,39.619Zm0-3.5a.941.941,0,1,0,.941.941A.942.942,0,0,0,168.073,36.12Zm0,0" transform="translate(-146.405 -30.52)" fill="#222"/>
</svg>
