<svg xmlns="http://www.w3.org/2000/svg" xmlns:xlink="http://www.w3.org/1999/xlink" width="518" height="464" viewBox="0 0 518 464">
  <defs>
    <clipPath id="clip-path">
      <rect id="Rectangle_256" data-name="Rectangle 256" width="518" height="464" transform="translate(393 1687)" fill="none"/>
    </clipPath>
    <linearGradient id="linear-gradient" x1="0.5" y1="1" x2="0.5" gradientUnits="objectBoundingBox">
      <stop offset="0" stop-color="gray" stop-opacity="0.251"/>
      <stop offset="0.54" stop-color="gray" stop-opacity="0.122"/>
      <stop offset="1" stop-color="gray" stop-opacity="0.102"/>
    </linearGradient>
    <linearGradient id="linear-gradient-3" xlink:href="#linear-gradient"/>
    <linearGradient id="linear-gradient-4" x1="0" y1="0.5" x2="1" y2="0.5" xlink:href="#linear-gradient"/>
  </defs>
  <g id="Group_698" data-name="Group 698" transform="translate(-393 -1687)">
    <g id="Mask_Group_25" data-name="Mask Group 25" clip-path="url(#clip-path)">
      <path id="blob_copy" data-name="blob copy" d="M341.977-53.826c51.1,23.229,85.284,86.944,76.656,142.694-8.628,55.418-59.732,103.2-94.576,157.295S270.63,360.981,225.831,397.816C181.363,434.983,110.68,448.92,70.2,417.727,29.378,386.865,18.759,310.872-4.8,251.14c-23.893-59.4-60.728-102.209-61.391-146.012S-31.682,16.857,11.127-7.7C53.6-32.256,103.712-36.9,162.78-48.185,222.18-59.468,290.541-76.724,341.977-53.826Z" transform="translate(561.752 1690.228) rotate(30)" fill="#f4f7fe"/>
    </g>
    <g id="undraw_processing_qj6a" transform="translate(395.08 1727.263)">
      <rect id="Rectangle_217" data-name="Rectangle 217" width="213" height="288" transform="translate(0 -0.263)" fill="url(#linear-gradient)"/>
      <rect id="Rectangle_218" data-name="Rectangle 218" width="196" height="277" transform="translate(13 4.737)" fill="#fff"/>
      <rect id="Rectangle_219" data-name="Rectangle 219" width="10" height="277" transform="translate(3 4.737)" fill="#f5f5f5"/>
      <rect id="Rectangle_220" data-name="Rectangle 220" width="132" height="4" transform="translate(45 209.737)" fill="#e0e0e0"/>
      <rect id="Rectangle_221" data-name="Rectangle 221" width="132" height="3" transform="translate(45 222.737)" fill="#69f0ae" opacity="0.4"/>
      <rect id="Rectangle_222" data-name="Rectangle 222" width="132" height="4" transform="translate(45 234.737)" fill="#ff0" opacity="0.4"/>
      <rect id="Rectangle_223" data-name="Rectangle 223" width="132" height="3" transform="translate(45 247.737)" fill="#e0e0e0"/>
      <rect id="Rectangle_224" data-name="Rectangle 224" width="132" height="3" transform="translate(45 260.737)" fill="#e0e0e0"/>
      <path id="Path_295" data-name="Path 295" d="M287.3,153.162c.055-.608.088-1.222.088-1.842a20.461,20.461,0,0,0-.794-5.645l-2.385.113-1.1-3,1.54-1.683a20.677,20.677,0,0,0-4.879-5.723l-1.88,1.458-2.62-1.831.3-2.264a20.376,20.376,0,0,0-7.275-1.891l-.707,2.275h-3.2l-1.053-2.028a20.464,20.464,0,0,0-9.939,4.731l1.1,2.105-2.259,2.259-2.193-.685a20.443,20.443,0,0,0-3.141,6.831l2.127,1.1-.548,3.147-2.193.685v.049a20.42,20.42,0,0,0,1.365,7.346l2.368-.323,1.349,2.894-1.387,1.809a20.7,20.7,0,0,0,5.35,5.285l1.749-1.645,2.768,1.6-.1,2.291a20.438,20.438,0,0,0,7.072,1.255h.345l.5-2.33,3.185-.28,1.228,1.93a20.459,20.459,0,0,0,6.787-3.234l-.921-2.193,2.45-2.056,2.105.872A20.53,20.53,0,0,0,286.232,158l-2.017-1.272.828-3.086Zm-20.448,13.53a15.35,15.35,0,1,1,15.35-15.35A15.35,15.35,0,0,1,266.848,166.691Z" transform="translate(-198.734 -104.07)" fill="#6c63ff"/>
      <path id="Path_296" data-name="Path 296" d="M333.3,222.162c.055-.608.088-1.222.088-1.842a20.46,20.46,0,0,0-.794-5.645l-2.385.113-1.1-3,1.54-1.683a20.678,20.678,0,0,0-4.879-5.723l-1.88,1.458-2.62-1.831.3-2.264a20.377,20.377,0,0,0-7.275-1.891l-.707,2.275h-3.2l-1.053-2.028a20.464,20.464,0,0,0-9.939,4.731l1.1,2.105-2.259,2.259-2.193-.685a20.443,20.443,0,0,0-3.141,6.831l2.127,1.1-.548,3.147-2.193.685v.049a20.421,20.421,0,0,0,1.365,7.346l2.368-.323,1.349,2.895-1.387,1.809a20.7,20.7,0,0,0,5.35,5.285l1.749-1.645,2.768,1.6-.1,2.291a20.438,20.438,0,0,0,7.072,1.255h.345l.5-2.33,3.185-.28,1.228,1.93a20.46,20.46,0,0,0,6.787-3.234l-.921-2.193,2.45-2.056,2.105.872A20.531,20.531,0,0,0,332.232,227l-2.017-1.272.828-3.086Zm-20.448,13.53a15.35,15.35,0,1,1,15.35-15.35A15.35,15.35,0,0,1,312.848,235.691Z" transform="translate(-219.517 -135.245)" fill="#6c63ff" opacity="0.6"/>
      <path id="Path_297" data-name="Path 297" d="M380.3,153.162c.055-.608.088-1.222.088-1.842a20.46,20.46,0,0,0-.794-5.645l-2.385.113-1.1-3,1.54-1.683a20.678,20.678,0,0,0-4.879-5.723l-1.88,1.458-2.62-1.831.3-2.264a20.376,20.376,0,0,0-7.275-1.891l-.707,2.275h-3.2l-1.053-2.028a20.465,20.465,0,0,0-9.939,4.731l1.1,2.105-2.259,2.259-2.193-.685a20.443,20.443,0,0,0-3.141,6.831l2.127,1.1-.548,3.147-2.193.685v.049a20.421,20.421,0,0,0,1.365,7.346l2.368-.323,1.349,2.894-1.387,1.809a20.7,20.7,0,0,0,5.35,5.285l1.749-1.645,2.768,1.6-.1,2.291a20.438,20.438,0,0,0,7.072,1.255h.345l.5-2.33,3.185-.28,1.228,1.93a20.459,20.459,0,0,0,6.787-3.234l-.921-2.193,2.45-2.056,2.105.872A20.53,20.53,0,0,0,379.232,158l-2.017-1.272.828-3.086Zm-20.448,13.53a15.35,15.35,0,1,1,15.35-15.35A15.35,15.35,0,0,1,359.848,166.691Z" transform="translate(-240.751 -104.07)" fill="#6c63ff" opacity="0.4"/>
      <path id="Path_298" data-name="Path 298" d="M437.3,222.162c.055-.608.088-1.222.088-1.842a20.46,20.46,0,0,0-.794-5.645l-2.385.114-1.1-3,1.54-1.683a20.678,20.678,0,0,0-4.879-5.723l-1.88,1.458-2.62-1.831.3-2.264a20.377,20.377,0,0,0-7.275-1.891l-.707,2.275h-3.2l-1.053-2.028a20.464,20.464,0,0,0-9.939,4.731l1.1,2.105-2.259,2.259-2.193-.685a20.443,20.443,0,0,0-3.141,6.831l2.127,1.1-.548,3.147-2.193.685v.049a20.421,20.421,0,0,0,1.365,7.346l2.368-.323,1.349,2.895-1.387,1.809a20.7,20.7,0,0,0,5.35,5.285l1.749-1.645,2.768,1.6-.1,2.291a20.438,20.438,0,0,0,7.072,1.255h.345l.5-2.33,3.185-.28,1.228,1.93a20.459,20.459,0,0,0,6.787-3.234l-.921-2.193,2.45-2.056,2.105.872A20.531,20.531,0,0,0,436.232,227l-2.017-1.272.828-3.086Zm-20.448,13.53a15.35,15.35,0,1,1,15.35-15.35A15.35,15.35,0,0,1,416.848,235.691Z" transform="translate(-266.504 -135.245)" fill="#6c63ff"/>
      <line id="Line_12" data-name="Line 12" x1="3.289" transform="translate(85.108 12.06)" fill="none" stroke="#6c63ff" stroke-miterlimit="10" stroke-width="1"/>
      <line id="Line_13" data-name="Line 13" x1="38.336" transform="translate(39.805 12.06)" fill="none" stroke="#6c63ff" stroke-miterlimit="10" stroke-width="1" stroke-dasharray="12.71 12.71"/>
      <path id="Path_299" data-name="Path 299" d="M63.539,22H60.25v3.289" transform="translate(-27.221 -9.94)" fill="none" stroke="#6c63ff" stroke-miterlimit="10" stroke-width="1"/>
      <line id="Line_14" data-name="Line 14" y2="46.597" transform="translate(33.029 21.561)" fill="none" stroke="#6c63ff" stroke-miterlimit="10" stroke-width="1" stroke-dasharray="11.33 11.33"/>
      <line id="Line_15" data-name="Line 15" y2="3.289" transform="translate(33.029 71.266)" fill="none" stroke="#6c63ff" stroke-miterlimit="10" stroke-width="1"/>
      <path id="Path_300" data-name="Path 300" d="M207.75,168.736h74.555V103.5" transform="translate(-93.862 -46.761)" fill="none" stroke="#6c63ff" stroke-miterlimit="10" stroke-width="1" stroke-dasharray="12"/>
      <rect id="Rectangle_225" data-name="Rectangle 225" width="169" height="44" transform="translate(56 142.738)" fill="url(#linear-gradient)"/>
      <rect id="Rectangle_226" data-name="Rectangle 226" width="165" height="39" transform="translate(58 145.738)" fill="#6c63ff"/>
      <rect id="Rectangle_227" data-name="Rectangle 227" width="48" height="3" transform="translate(102 154.738)" fill="#6c63ff"/>
      <rect id="Rectangle_228" data-name="Rectangle 228" width="48" height="3" transform="translate(102 159.737)" opacity="0.2"/>
      <rect id="Rectangle_229" data-name="Rectangle 229" width="94" height="2" transform="translate(102 168.737)" fill="#fff"/>
      <circle id="Ellipse_100" data-name="Ellipse 100" cx="10.5" cy="10.5" r="10.5" transform="translate(66 154.738)" fill="#6c63ff"/>
      <circle id="Ellipse_101" data-name="Ellipse 101" cx="10.5" cy="10.5" r="10.5" transform="translate(66 154.738)" opacity="0.2"/>
      <path id="Path_301" data-name="Path 301" d="M702.274,494.822a.735.735,0,0,0,.1-.844c-2.357-4.72-4.72-3.536-11.693-17.027-7.423-14.346-5.575-19.154-8.354-21.9-1.1-1.1-2.226-4.758-3.717-5.4l-.965-3.87a4.972,4.972,0,0,0,2.56-.395,10.394,10.394,0,0,0,3.739-3.289,24.975,24.975,0,0,0,3.837-6.491,17.738,17.738,0,0,0,1.1-5.334h0a18.233,18.233,0,0,0-.049-2.741,11.014,11.014,0,0,0,4.742-2,8.223,8.223,0,0,0,3-5.4h0c0-.214.049-.422.06-.636a6.627,6.627,0,0,0,0-.757,8.223,8.223,0,0,0-3.783-6.425,10.728,10.728,0,0,0-6.578-1.365,28.622,28.622,0,0,0-6.661,1.639,21.291,21.291,0,0,0-2.056.713,15.225,15.225,0,0,0-4.8-.784,30.514,30.514,0,0,0-7.845,1.392l-8.656,2.319a12.133,12.133,0,0,0-5.35,2.45,4.537,4.537,0,0,0-.356.389l-.066.082a4.844,4.844,0,0,0-.312.444h0a3.8,3.8,0,0,0,0,4.429,5.274,5.274,0,0,0,1.858,1.283,20.721,20.721,0,0,0,2.615,1,14.254,14.254,0,0,0-2.461,8.026c0,.164,0,.323,0,.488v.488a14.3,14.3,0,0,0,14.3,14.3h.236l.417,3.355a29.6,29.6,0,0,0-4.884,6.831,7.614,7.614,0,0,0-2.4,5.9c-.027,2.379.619,5.29,1.25,9.319l-20.333-8.64-12.7,27.344,9.769,3.6c-4.588.208-7.127,3.563-7.088,6.979a6.754,6.754,0,0,0,2.006,5.049c3.536,3.536,7.828,40.364,7.828,40.364h1.787v3.865c-7.242.439-14.588,1.332-14.588,3.147a5.9,5.9,0,0,0,2.313,4.5c-.1-.126-.208-.263-.307-.406a7.819,7.819,0,0,0,1.853,1.409h39.333V554.1h.066v-.981s-1.425,0-3.64.038v-3.476H669.2c1.6-14.374-5.361-33.024-6.869-36.839,2.45,0,5.027-.033,7.582-.175,10.849.488,29.5.367,33.259-5.893C707.339,499.86,704,496.159,702.274,494.822Zm-54.507,17.323s.817.082,2.193.186c1.475,4.2,2.566,11.112,3.339,17.855a118.616,118.616,0,0,0-5.531-18.041Zm15.695-63.832a14.348,14.348,0,0,0,3.042.329h.11l.088.718a14.192,14.192,0,0,1-3.24-1.052Zm-6.754,104.953h-.3v-.143s-1.277,0-3.289.033v-3.47H656.7Z" transform="translate(-371.096 -230.59)" fill="url(#linear-gradient-3)"/>
      <path id="Path_302" data-name="Path 302" d="M529.788,512,521,599.712l10.432.548L544.573,512Z" transform="translate(-235.388 -231.322)" fill="url(#linear-gradient-4)"/>
      <path id="Path_303" data-name="Path 303" d="M532.578,512,526,598.616h6.578L541.9,512Z" transform="translate(-237.647 -231.322)" fill="#6c63ff"/>
      <path id="Path_304" data-name="Path 304" d="M856.991,506l8.64,88.26H855.347L847.08,506Z" transform="translate(-382.711 -228.611)" fill="url(#linear-gradient)"/>
      <path id="Path_305" data-name="Path 305" d="M857.319,507l6.578,86.616h-6.578L848,507Z" transform="translate(-383.127 -229.063)" fill="#6c63ff"/>
      <path id="Path_306" data-name="Path 306" d="M577.168,505,569,593.26h10.909L588.735,505Z" transform="translate(-257.074 -228.159)" fill="url(#linear-gradient)"/>
      <path id="Path_307" data-name="Path 307" d="M579.578,505,573,591.616h6.578L588.9,505Z" transform="translate(-258.882 -228.159)" fill="#6c63ff"/>
      <path id="Path_308" data-name="Path 308" d="M811.89,507l8.393,90.453H810.246L800,507Z" transform="translate(-361.44 -229.063)" fill="url(#linear-gradient)"/>
      <path id="Path_309" data-name="Path 309" d="M813.319,512l6.578,86.616h-6.578L804,512Z" transform="translate(-363.248 -231.322)" fill="#6c63ff"/>
      <rect id="Rectangle_230" data-name="Rectangle 230" width="197" height="9" transform="translate(281 275.737)" fill="url(#linear-gradient)"/>
      <rect id="Rectangle_231" data-name="Rectangle 231" width="158" height="8" transform="translate(283 275.737)" fill="#6c63ff"/>
      <rect id="Rectangle_232" data-name="Rectangle 232" width="36" height="8" transform="translate(441 275.737)" fill="#6c63ff"/>
      <rect id="Rectangle_233" data-name="Rectangle 233" width="36.181" height="8.223" transform="translate(441.005 275.744)" opacity="0.2"/>
      <rect id="Rectangle_234" data-name="Rectangle 234" width="74" height="47" transform="translate(345 222.737)" fill="url(#linear-gradient)"/>
      <rect id="Rectangle_235" data-name="Rectangle 235" width="70" height="43" transform="translate(346 224.737)" fill="#fff"/>
      <rect id="Rectangle_236" data-name="Rectangle 236" width="22" height="12" transform="translate(371 263.737)" fill="url(#linear-gradient)"/>
      <rect id="Rectangle_237" data-name="Rectangle 237" width="19.187" height="11.512" transform="translate(371.405 264.232)" fill="#fff"/>
      <rect id="Rectangle_238" data-name="Rectangle 238" width="2" height="43" transform="translate(416 224.737)" fill="#f5f5f5"/>
      <rect id="Rectangle_239" data-name="Rectangle 239" width="2" height="12" transform="translate(390 263.737)" fill="#f5f5f5"/>
      <rect id="Rectangle_240" data-name="Rectangle 240" width="6" height="6" transform="translate(378 239.737)" fill="url(#linear-gradient)"/>
      <rect id="Rectangle_241" data-name="Rectangle 241" width="4" height="4" transform="translate(379 240.737)" fill="#f5f5f5"/>
      <path id="Path_310" data-name="Path 310" d="M490.235,430.1l35.847,15.234-12.066,22.92L478.58,455.2Z" transform="translate(-216.223 -194.319)" fill="#6c63ff"/>
      <rect id="Rectangle_242" data-name="Rectangle 242" width="9.846" height="8.201" transform="translate(275.481 308.976)" fill="#f8c198"/>
      <rect id="Rectangle_243" data-name="Rectangle 243" width="9.846" height="8.201" transform="translate(288.611 308.976)" fill="#f8c198"/>
      <circle id="Ellipse_102" data-name="Ellipse 102" cx="13.124" cy="13.124" r="13.124" transform="translate(284.477 193.273)" fill="#f8c198"/>
      <path id="Path_311" data-name="Path 311" d="M554.494,400.1H543.009L541.37,386.98h9.846Z" transform="translate(-244.591 -174.838)" fill="#f8c198"/>
      <path id="Path_312" data-name="Path 312" d="M694.307,558.83s6.578,3.289,1.645,11.512-37.738,4.934-37.738,4.934,8.223,19.686,6.578,34.454H651.646s-3.936-33.813-7.165-37.1c-4.183-4.183-1.02-12.181,7.187-10.542S694.307,558.83,694.307,558.83Z" transform="translate(-377.804 -297.432)" fill="#263238"/>
      <g id="Group_550" data-name="Group 550" transform="translate(264.821 261.102)" opacity="0.2">
        <path id="Path_313" data-name="Path 313" d="M675.95,588.22s5.767.548,12.822.641c-5.12.055-9.868-.208-12.729-.411Z" transform="translate(-657.675 -571.812)" fill="#fff"/>
        <path id="Path_314" data-name="Path 314" d="M670.71,561.886c12.811-.247,36.28-3.6,36.28-3.6a4.929,4.929,0,0,1,.493.3C700.8,559.5,680.517,562.116,670.71,561.886Z" transform="translate(-655.308 -558.29)" fill="#fff"/>
        <path id="Path_315" data-name="Path 315" d="M650.912,563.97a6.267,6.267,0,0,0-3.772,10.662c3.245,3.245,7.187,37.042,7.187,37.042h-2.686s-3.942-33.8-7.17-37.042C640.392,570.576,643.253,562.929,650.912,563.97Z" transform="translate(-642.614 -560.813)" fill="#fff"/>
      </g>
      <path id="Path_316" data-name="Path 316" d="M664.363,657.59s-26.253,0-26.253,3.289,3.289,4.934,3.289,4.934h22.964Z" transform="translate(-375.758 -342.052)" fill="#263238"/>
      <path id="Path_317" data-name="Path 317" d="M663.9,657.36v.9c-4.572.033-25.354.356-25.354,3.289a5.005,5.005,0,0,0,1.228,3.234,5.422,5.422,0,0,1-2.127-4.128C637.65,657.36,663.9,657.36,663.9,657.36Z" transform="translate(-375.55 -341.948)" fill="#fff" opacity="0.2"/>
      <path id="Path_318" data-name="Path 318" d="M718.334,558.83s6.578,3.289,1.645,11.512-37.738,4.934-37.738,4.934,8.223,19.686,6.578,34.454H675.668s-1.645-34.454-6.578-37.738-1.645-11.512,6.578-9.868S718.334,558.83,718.334,558.83Z" transform="translate(-388.707 -297.432)" fill="#263238"/>
      <path id="Path_319" data-name="Path 319" d="M688.363,657.59s-26.253,0-26.253,3.289,3.289,4.934,3.289,4.934h22.964Z" transform="translate(-386.601 -342.052)" fill="#263238"/>
      <path id="Path_320" data-name="Path 320" d="M710.107,484H714.1c1.573,0,2.7,3.947,3.837,5.054,2.555,2.516.855,6.924,7.675,20.092,6.4,12.378,8.568,11.3,10.734,15.624S697.7,528.9,697.7,528.9s2.078-8.289,1.645-14.368c-.9-12.493-4.144-16.819.186-21.15C699.516,493.38,704.159,484,710.107,484Z" transform="translate(-402.513 -263.624)" fill="#ff5252"/>
      <path id="Path_321" data-name="Path 321" d="M497.038,441.54l-5.378,11.655,3.585,1.793,5.378-11.655Z" transform="translate(-222.132 -199.488)" fill="#fff"/>
      <path id="Path_322" data-name="Path 322" d="M691.592,436.2a13.3,13.3,0,0,1,1.343.066,13.124,13.124,0,0,0,0,26.116,13.283,13.283,0,0,1-1.343.066,13.127,13.127,0,0,1,0-26.253Z" transform="translate(-393.991 -242.023)" fill="#fff" opacity="0.2"/>
      <path id="Path_323" data-name="Path 323" d="M675.2,426.444a10.918,10.918,0,0,1,4.934-2.248l7.943-2.127a28.409,28.409,0,0,1,7.2-1.277,13.969,13.969,0,0,1,4.386.718c.658-.285,1.4-.493,1.886-.652a26.265,26.265,0,0,1,6.091-1.469,9.868,9.868,0,0,1,6.03,1.255,7.428,7.428,0,0,1,.652,12.126,10.1,10.1,0,0,1-4.347,1.836,16.49,16.49,0,0,1-.943,7.384,22.918,22.918,0,0,1-3.5,5.959,9.5,9.5,0,0,1-3.432,3.021,3.924,3.924,0,0,1-4.309-.548,5.571,5.571,0,0,1-1.277-3.108c-.828-4.429-1.645-9.522-5.482-11.885-2.407-1.48-5.087-1.338-7.773-1.321a16.2,16.2,0,0,1-6.968-1.6,4.84,4.84,0,0,1-1.743-1.173C673.332,429.958,673.881,427.705,675.2,426.444Z" transform="translate(-391.914 -234.404)" fill="#fccc63"/>
      <g id="Group_551" data-name="Group 551" transform="translate(281.999 184.922)" opacity="0.2">
        <path id="Path_324" data-name="Path 324" d="M713.716,422.437a9.868,9.868,0,0,0-6.03-1.255,26.265,26.265,0,0,0-6.09,1.469c-.488.164-1.228.367-1.886.652a13.968,13.968,0,0,0-4.385-.718,27.93,27.93,0,0,0-7.2,1.277l-7.943,2.127a11.133,11.133,0,0,0-4.934,2.248,4.451,4.451,0,0,0-1.2,2.116,4.133,4.133,0,0,1,1.2-3.909,10.919,10.919,0,0,1,4.934-2.248l7.943-2.127a28.408,28.408,0,0,1,7.2-1.277,13.97,13.97,0,0,1,4.386.718c.658-.285,1.4-.493,1.886-.652a26.262,26.262,0,0,1,6.09-1.469,9.868,9.868,0,0,1,6.03,1.255,7.56,7.56,0,0,1,3.47,5.893,7.122,7.122,0,0,1-.06,1.277,7.56,7.56,0,0,0-3.41-5.378Z" transform="translate(-673.949 -419.327)" fill="#fff"/>
        <path id="Path_325" data-name="Path 325" d="M739.839,450.44v.718a3.354,3.354,0,0,0-.049-.7Z" transform="translate(-703.696 -433.384)" fill="#fff"/>
      </g>
      <path id="Path_326" data-name="Path 326" d="M699.341,514.839c-.9-12.493-4.144-16.819.186-21.15,0,0,4.638-9.38,10.591-9.38h3.991a1.825,1.825,0,0,1,1.316.894H712.81c-5.953,0-10.591,9.38-10.591,9.38-4.331,4.331-1.1,8.656-.186,21.15.351,4.874-.915,11.167-1.431,13.469h-2.9S699.768,520.913,699.341,514.839Z" transform="translate(-402.513 -263.764)" fill="#fff" opacity="0.2"/>
      <rect id="Rectangle_244" data-name="Rectangle 244" width="14.341" height="9.857" transform="translate(312.551 242.951) rotate(180)" fill="#ff5252"/>
      <g id="Group_552" data-name="Group 552" transform="translate(278.086 261.102)" opacity="0.2">
        <path id="Path_327" data-name="Path 327" d="M694.66,561.886c12.811-.247,36.28-3.6,36.28-3.6a4.936,4.936,0,0,1,.493.3C724.745,559.5,704.467,562.116,694.66,561.886Z" transform="translate(-679.393 -558.29)" fill="#fff"/>
        <path id="Path_328" data-name="Path 328" d="M675,563.98c-5.625.855-7.357,7.176-3.18,9.961,4.934,3.289,6.578,37.738,6.578,37.738h-2.714s-1.645-34.454-6.578-37.738C664.349,570.756,667.309,562.928,675,563.98Z" transform="translate(-666.811 -560.817)" fill="#fff"/>
        <path id="Path_329" data-name="Path 329" d="M699.89,588.22s5.767.548,12.822.641c-5.12.055-9.868-.208-12.729-.411Z" transform="translate(-681.756 -571.812)" fill="#fff"/>
      </g>
      <path id="Path_330" data-name="Path 330" d="M699.329,519.92v15.695a10.021,10.021,0,0,1-10.416,10.021c-6.935-.269-14.933-.373-15.848.548-.762.762-2.577,2.226-4.309,3.574a2.544,2.544,0,0,1-4.1-2.248c.219-2.637,1.047-5.444,3.476-6.25a43,43,0,0,1,8.979-1.283,11.512,11.512,0,0,0,10.706-11.512V519.92Z" transform="translate(-387.748 -279.852)" fill="#f8c198"/>
      <path id="Path_331" data-name="Path 331" d="M664.692,547.5c.219-2.637,1.047-5.444,3.476-6.25a43,43,0,0,1,8.979-1.283,11.512,11.512,0,0,0,10.706-11.512V519.92h11.512v.894h-9.714v8.535a11.512,11.512,0,0,1-10.706,11.512,42.705,42.705,0,0,0-8.98,1.283c-2.429.811-3.262,3.618-3.476,6.249a2.533,2.533,0,0,0,.608,1.886,2.56,2.56,0,0,1-2.407-2.779Z" transform="translate(-387.763 -279.852)" fill="#fff" opacity="0.2"/>
      <path id="Path_332" data-name="Path 332" d="M688.423,657.36v.9c-4.572.033-25.354.356-25.354,3.289a5.006,5.006,0,0,0,1.228,3.234,5.422,5.422,0,0,1-2.127-4.128C662.17,657.36,688.423,657.36,688.423,657.36Z" transform="translate(-386.628 -341.948)" fill="#fff" opacity="0.2"/>
      <path id="Path_333" data-name="Path 333" d="M233,488.181V607.689H444.057V452h6.03" transform="translate(-105.269 -204.214)" fill="none" stroke="#6c63ff" stroke-miterlimit="10" stroke-width="3" opacity="0.5"/>
    </g>
  </g>
</svg>
