<svg xmlns="http://www.w3.org/2000/svg" width="44.299" height="44.272" viewBox="0 0 44.299 44.272">
  <g id="noun_Encrypted_2030785" transform="translate(-6.999 -7.04)">
    <g id="Group_354" data-name="Group 354" transform="translate(6.999 7.04)">
      <g id="Encripted">
        <path id="Path_176" data-name="Path 176" d="M29.153,51.311a.886.886,0,0,1-.346-.071A35.879,35.879,0,0,1,12.751,37.948C9.4,32.915,7.434,19.145,7,13.269a.886.886,0,0,1,.665-.886L28.932,7.067a.886.886,0,0,1,.434,0l21.267,5.317a.886.886,0,0,1,.665.886c-.425,5.875-2.4,19.646-5.751,24.7A35.888,35.888,0,0,1,29.49,51.258.886.886,0,0,1,29.153,51.311ZM8.825,13.881c.505,5.893,2.41,18.609,5.405,23.11A34.107,34.107,0,0,0,29.153,49.459,34.107,34.107,0,0,0,44.076,36.991c3-4.519,4.891-17.218,5.405-23.11l-20.328-5.1Z" transform="translate(-6.999 -7.04)" fill="#222"/>
        <path id="Path_177" data-name="Path 177" d="M29.643,47.9a.886.886,0,0,1-.381-.089,31.316,31.316,0,0,1-3.855-2.171A31.8,31.8,0,0,1,16.2,36.482c-2.189-3.305-4.076-12.689-4.891-20.009a.886.886,0,0,1,.665-.957l17.457-4.36a.886.886,0,0,1,.434,0l17.457,4.36a.886.886,0,0,1,.665.957c-.824,7.319-2.658,16.712-4.891,20.009a31.786,31.786,0,0,1-9.207,9.154,31.511,31.511,0,0,1-3.864,2.18A.886.886,0,0,1,29.643,47.9ZM13.161,17.04c.886,7.187,2.658,15.64,4.519,18.467a30.049,30.049,0,0,0,8.7,8.658,29.6,29.6,0,0,0,3.261,1.861,29.6,29.6,0,0,0,3.27-1.87A30,30,0,0,0,41.606,35.5c1.87-2.818,3.66-11.272,4.519-18.458L29.643,12.92Z" transform="translate(-7.49 -7.505)" fill="#222"/>
        <path id="Path_178" data-name="Path 178" d="M31.089,37.07a.886.886,0,0,1-.727-.381l-6.2-8.861a.887.887,0,1,1,1.453-1.019l5.476,7.807L39.232,22.4a.886.886,0,0,1,1.471.984L31.842,36.68a.886.886,0,0,1-.753.39Z" transform="translate(-8.935 -8.749)" fill="#222"/>
        <rect id="Rectangle_115" data-name="Rectangle 115" width="1.772" height="3.545" transform="translate(21.268 0.851)" fill="#222"/>
        <rect id="Rectangle_116" data-name="Rectangle 116" width="1.772" height="3.545" transform="translate(21.268 39.841)" fill="#222"/>
        <rect id="Rectangle_117" data-name="Rectangle 117" width="3.101" height="1.772" transform="translate(37.661 21.232)" fill="#222"/>
        <rect id="Rectangle_118" data-name="Rectangle 118" width="3.101" height="1.772" transform="translate(3.545 21.232)" fill="#222"/>
      </g>
    </g>
  </g>
</svg>
