<svg xmlns="http://www.w3.org/2000/svg" width="47.953" height="48.019" viewBox="0 0 47.953 48.019">
  <g id="noun_Security_3663513" transform="translate(-6.018 -5.991)">
    <path id="Path_378" data-name="Path 378" d="M30.76,15.39a1.04,1.04,0,0,0-1.52,0A14.042,14.042,0,0,1,18.5,19.97a1,1,0,0,0-1,1v9.31c0,6.83,5.04,12.85,12.26,14.66a.975.975,0,0,0,.48,0c7.22-1.8,12.26-7.83,12.26-14.66V20.97a1,1,0,0,0-1-1A14.008,14.008,0,0,1,30.76,15.39ZM40.5,30.28c0,5.92-4.21,10.98-10.5,12.65-6.29-1.67-10.5-6.73-10.5-12.65V21.95A16.07,16.07,0,0,0,30,17.51a16.12,16.12,0,0,0,10.5,4.44Z"/>
    <path id="Path_379" data-name="Path 379" d="M21.28,9.82a21.873,21.873,0,0,1,16.83-.27,22.1,22.1,0,0,1,7.71,5.17l-2.21-.17a.979.979,0,0,0-1.07.92,1,1,0,0,0,.92,1.07l4.65.35h.08c.04,0,.08-.02.13-.02a1.163,1.163,0,0,0,.18-.04.934.934,0,0,0,.2-.1,1.172,1.172,0,0,1,.11-.05l.03-.03a1.372,1.372,0,0,0,.16-.18c.03-.04.06-.07.09-.11a1.39,1.39,0,0,0,.06-.19A1.092,1.092,0,0,0,49.2,16a.035.035,0,0,1,.01-.02l.35-4.65a1,1,0,0,0-.92-1.07.986.986,0,0,0-1.07.92l-.17,2.26A24.027,24.027,0,0,0,7.7,21.17a23.684,23.684,0,0,0-1.68,9.07,1,1,0,0,0,1,.99h.01a1.01,1.01,0,0,0,.99-1.01A21.977,21.977,0,0,1,21.28,9.82Z"/>
    <path id="Path_380" data-name="Path 380" d="M53.02,30.18a.986.986,0,0,0-1.04.96,21.316,21.316,0,0,1-1.51,6.97A21.993,21.993,0,0,1,15.1,46.17h2.3a1,1,0,1,0,0-2H12.74a.875.875,0,0,0-.28.06.06.06,0,0,0-.04.01,1.03,1.03,0,0,0-.34.19h0a1.034,1.034,0,0,0-.24.31h0a.887.887,0,0,0-.07.28.425.425,0,0,0-.02.11c0,.01-.01.03-.01.04v4.66a1,1,0,0,0,2,0v-2.2a23.98,23.98,0,0,0,38.59-8.79,23.287,23.287,0,0,0,1.64-7.62A.989.989,0,0,0,53.02,30.18Z"/>
  </g>
</svg>
