<svg xmlns="http://www.w3.org/2000/svg" width="43.871" height="43.855" viewBox="0 0 43.871 43.855">
  <g id="noun_Free_338463" transform="translate(-5 -5)">
    <g id="Group_409" data-name="Group 409" transform="translate(5 5)">
      <path id="Path_211" data-name="Path 211" d="M37.565,31.491a1.906,1.906,0,1,0-1.906-1.906,1.908,1.908,0,0,0,1.906,1.906Zm8.987,2.25H35.744l-3.705-4.156,3.705-4.155H46.552Zm1.16-10.63h-.773v-9.47a1.161,1.161,0,0,0-1.16-1.16H43.556V8.326a1.161,1.161,0,0,0-1.16-1.16h-5.4a1.16,1.16,0,1,0,0,2.319h4.244v3H34.754a1.16,1.16,0,0,0,0,2.319h9.865v8.311H35.225a1.157,1.157,0,0,0-.866.388l-4.741,5.314a1.16,1.16,0,0,0,0,1.544l4.741,5.315a1.163,1.163,0,0,0,.866.387h9.395V44.37h-23.3a1.159,1.159,0,1,0,0,2.319H45.779a1.161,1.161,0,0,0,1.16-1.16v-9.47h.773a1.161,1.161,0,0,0,1.16-1.16V24.27a1.161,1.161,0,0,0-1.16-1.159ZM34.2,5.092A1.146,1.146,0,0,0,33.753,5a1.158,1.158,0,0,0-1.069.71l-17.5,41.535a1.16,1.16,0,0,0,2.137.9L34.821,6.61A1.159,1.159,0,0,0,34.2,5.092ZM13.012,44.37H10.991A3.677,3.677,0,0,1,7.319,40.7V14.5a3.81,3.81,0,0,0,1.475.3H26.447a1.16,1.16,0,1,0,0-2.319H8.791A1.473,1.473,0,0,1,7.319,11.01v-.049A1.477,1.477,0,0,1,8.794,9.486H28.686a1.16,1.16,0,1,0,0-2.319H8.794A3.793,3.793,0,0,0,5,10.954V40.7a6,6,0,0,0,5.991,5.991h2.021a1.159,1.159,0,1,0,0-2.319Z" transform="translate(-5 -5)" fill="#222" fill-rule="evenodd"/>
    </g>
  </g>
</svg>
