<svg xmlns="http://www.w3.org/2000/svg" width="40.043" height="40.043" viewBox="0 0 40.043 40.043">
  <g id="noun_improve_3522335" transform="translate(-231.979 253.021)">
    <path id="Path_337" data-name="Path 337" d="M44.153,43.263h-1.78V15.678a.892.892,0,0,0-.89-.89H33.475a.892.892,0,0,0-.89.89V43.263h-2.67v-17.8a.892.892,0,0,0-.89-.89H21.017a.892.892,0,0,0-.89.89v17.8h-2.67V21.907a.892.892,0,0,0-.89-.89H8.559a.892.892,0,0,0-.89.89V43.263H5.89a.89.89,0,1,0,0,1.78H44.153a.89.89,0,0,0,0-1.78Zm-34.7,0V22.8h6.229V43.263Zm12.458,0V26.356h6.229V43.263Zm12.458,0v-26.7h6.229v26.7ZM11.674,17.458a.892.892,0,0,1,.89-.89c9.931,0,18.967-6.7,22.6-9.788H32.14a.89.89,0,1,1,0-1.78h5.339a.766.766,0,0,1,.174.018.376.376,0,0,1,.076.022l.089.027c.031.013.058.031.089.044s.044.022.067.036a.914.914,0,0,1,.245.245c.013.022.022.044.036.067s.031.053.044.085a.675.675,0,0,1,.027.089.486.486,0,0,1,.022.076.68.68,0,0,1,.022.182v5.339a.89.89,0,1,1-1.78,0V7.914c-3.6,3.141-13.152,10.433-24.026,10.433A.892.892,0,0,1,11.674,17.458Z" transform="translate(226.979 -258.021)" fill="#2052eb"/>
  </g>
</svg>
