<svg xmlns="http://www.w3.org/2000/svg" width="51.895" height="46.905" viewBox="0 0 51.895 46.905">
  <g id="noun_marketing_3154527" transform="translate(-59.709 -103.095)">
    <g id="Group_528" data-name="Group 528" transform="translate(59.709 103.095)">
      <path id="Path_283" data-name="Path 283" d="M137.068,383.726a2.368,2.368,0,0,1-.964-.206,2.339,2.339,0,0,1-1.233-1.308l-4.4-11.6a2.346,2.346,0,0,1,1.359-3.028l15.25-5.787,6.068,15.985-15.245,5.787A2.33,2.33,0,0,1,137.068,383.726Zm9.022-19.7L132.451,369.2a.629.629,0,0,0-.367.809l4.4,11.6a.629.629,0,0,0,.809.367L150.93,376.8Z" transform="translate(-126.269 -346.962)"/>
      <path id="Path_284" data-name="Path 284" d="M64.876,520.651A3.075,3.075,0,0,1,62,518.666l-2.093-5.523a3.078,3.078,0,0,1,1.784-3.963L65.6,507.7l4.279,11.264L65.96,520.45A3,3,0,0,1,64.876,520.651ZM64.59,509.92l-2.294.872a1.356,1.356,0,0,0-.786,1.744l2.093,5.523a1.356,1.356,0,0,0,1.744.786l2.294-.872Z" transform="translate(-59.709 -484.494)"/>
      <path id="Path_285" data-name="Path 285" d="M422.159,137.571a1.142,1.142,0,0,1-.241-.023h0l-19.208-3.367-5.81-15.291,12.136-15.262a1.412,1.412,0,0,1,2.426.379l12.01,31.654a1.419,1.419,0,0,1-.229,1.4A1.4,1.4,0,0,1,422.159,137.571Zm-18.193-4.915,17.711,3.1-11.626-30.633L398.861,119.2Z" transform="translate(-377.561 -103.095)"/>
      <path id="Path_286" data-name="Path 286" d="M271.811,660.353a1.154,1.154,0,0,1-1.032-.637L264.9,648.171l9.676-3.671,1.147,3.017a3.554,3.554,0,0,1-.447,3.349l-.585.809,2.747,5.236a1.151,1.151,0,0,1,.057.952,1.175,1.175,0,0,1-.677.677l-4.594,1.744A1.273,1.273,0,0,1,271.811,660.353ZM267.3,649.094l4.778,9.395,3.539-1.342-2.954-5.621,1.216-1.675a1.808,1.808,0,0,0,.229-1.726l-.533-1.405Z" transform="translate(-253.131 -613.448)"/>
      <rect id="Rectangle_209" data-name="Rectangle 209" width="1.721" height="5.443" transform="translate(49.838 12.049) rotate(69.218)"/>
      <rect id="Rectangle_210" data-name="Rectangle 210" width="1.721" height="5.449" transform="translate(43.414 2.825) rotate(43.797)"/>
      <rect id="Rectangle_211" data-name="Rectangle 211" width="5.443" height="1.721" transform="translate(46.47 22.672) rotate(4.639)"/>
      <rect id="Rectangle_212" data-name="Rectangle 212" width="1.721" height="9.01" transform="translate(17.931 20.685) rotate(69.218)"/>
    </g>
  </g>
</svg>
