<svg xmlns="http://www.w3.org/2000/svg" width="48.387" height="42.991" viewBox="0 0 48.387 42.991">
  <g id="noun_revenue_1033166" transform="translate(-9.2 -13.7)">
    <path id="Path_340" data-name="Path 340" d="M32.725,32.028a2.029,2.029,0,1,1,2.253-2.016,1.186,1.186,0,0,0,2.372,0,4.422,4.422,0,0,0-3.439-4.21V23.786a1.186,1.186,0,1,0-2.372,0V25.8a4.422,4.422,0,0,0-3.439,4.21A4.509,4.509,0,0,0,32.725,34.4a2.029,2.029,0,1,1-2.253,2.016,1.186,1.186,0,1,0-2.372,0,4.422,4.422,0,0,0,3.439,4.21v2.016a1.186,1.186,0,0,0,2.372,0V40.626a4.352,4.352,0,0,0-1.186-8.6Z" transform="translate(-7.693 -3.623)" fill="#2052eb"/>
    <path id="Path_341" data-name="Path 341" d="M58.477,40.9H48.218a1.186,1.186,0,1,0,0,2.372h7.294L45.491,53.293l-8.3-8.361a1.146,1.146,0,0,0-1.66,0L14.656,65.746a1.146,1.146,0,0,0,0,1.66,1.146,1.146,0,0,0,1.66,0L36.3,47.482l8.361,8.3a1.146,1.146,0,0,0,1.66,0l10.97-10.97V52.4a1.186,1.186,0,1,0,2.372,0V42.086A1.189,1.189,0,0,0,58.477,40.9Z" transform="translate(-2.076 -11.071)" fill="#2052eb"/>
    <path id="Path_342" data-name="Path 342" d="M21.356,45.068l2.016-2.016a13.512,13.512,0,1,1,15.18-13.461,13.735,13.735,0,0,1-1.245,5.633L39.086,37a15.6,15.6,0,0,0,1.838-7.412A15.862,15.862,0,1,0,21.356,45.068Z" fill="#2052eb"/>
    <path id="Path_343" data-name="Path 343" d="M46.869,55.2a13.685,13.685,0,0,1-6.463,4.21L37.5,62.316A15.733,15.733,0,0,0,48.529,56.86Z" transform="translate(-11.519 -16.891)" fill="#2052eb"/>
  </g>
</svg>
