<svg xmlns="http://www.w3.org/2000/svg" width="41.59" height="46.776" viewBox="0 0 41.59 46.776">
  <g id="noun_ranking_3040327" transform="translate(-8.7 -3.6)">
    <g id="Group_566" data-name="Group 566" transform="translate(8.7 3.6)">
      <path id="Path_338" data-name="Path 338" d="M49.535,72.8H47.168V59.2a.774.774,0,0,0-.755-.755H38a.774.774,0,0,0-.755.755V72.746h-2.82V52.555a.774.774,0,0,0-.755-.755H25.316a.774.774,0,0,0-.755.755V72.746h-2.82V56.08a.774.774,0,0,0-.755-.755H12.577a.774.774,0,0,0-.755.755V72.8H9.455a.755.755,0,0,0,0,1.511h40.08a.755.755,0,0,0,0-1.511Zm-36.2,0V56.835h6.9V72.8Zm12.739,0V53.311h6.9V72.746h-6.9Zm12.688,0V59.957h6.9V72.746h-6.9Z" transform="translate(-8.7 -27.531)" fill="#2052eb"/>
      <path id="Path_339" data-name="Path 339" d="M32.18,17.447l-.3,6.546a.812.812,0,0,0,.3.655.707.707,0,0,0,.7.1l6.143-2.316,6.143,2.316a.454.454,0,0,0,.252.05.758.758,0,0,0,.755-.806l-.3-6.546,4.078-5.136a.874.874,0,0,0,.151-.7.831.831,0,0,0-.5-.5L43.307,9.34,39.682,3.9a.807.807,0,0,0-1.259,0L34.8,9.39,28.454,11.1a.647.647,0,0,0-.5.5.624.624,0,0,0,.151.7Zm3.273-6.7a.906.906,0,0,0,.453-.3l3.122-4.733,3.122,4.733a.733.733,0,0,0,.453.3l5.488,1.511-3.525,4.431a.851.851,0,0,0-.151.5l.252,5.69L39.33,20.87a.454.454,0,0,0-.252-.05.377.377,0,0,0-.252.05l-5.337,2.014.252-5.69a.851.851,0,0,0-.151-.5L30.065,12.26Z" transform="translate(-18.233 -3.6)" fill="#2052eb"/>
    </g>
  </g>
</svg>
