<svg xmlns="http://www.w3.org/2000/svg" width="25.001" height="43.106" viewBox="0 0 25.001 43.106">
  <g id="noun_Mobile_3671467" transform="translate(-15.5 -5)">
    <path id="Path_130" data-name="Path 130" d="M37.484,48.106A3.021,3.021,0,0,0,40.5,45.088V8.017A3.021,3.021,0,0,0,37.484,5H18.517A3.021,3.021,0,0,0,15.5,8.017V45.088a3.021,3.021,0,0,0,3.017,3.017ZM17.224,13.082H38.777V40.023H17.224Zm1.293-6.358H37.484a1.3,1.3,0,0,1,1.293,1.293v3.341H17.224V8.017A1.3,1.3,0,0,1,18.517,6.724ZM17.224,45.088V41.748H38.777v3.341a1.3,1.3,0,0,1-1.293,1.293H18.517A1.3,1.3,0,0,1,17.224,45.088Z" fill="#222"/>
    <path id="Path_131" data-name="Path 131" d="M29.254,50.784a.891.891,0,0,0,.94.19.889.889,0,0,0,.276-.19.837.837,0,0,0,.189-.275.9.9,0,0,0,.061-.337.853.853,0,0,0-.061-.328.761.761,0,0,0-.189-.276.548.548,0,0,0-.13-.112.48.48,0,0,0-.146-.077.507.507,0,0,0-.163-.051.83.83,0,0,0-.5.051.754.754,0,0,0-.276.189.882.882,0,0,0-.189.276.838.838,0,0,0-.061.328.884.884,0,0,0,.061.337A.837.837,0,0,0,29.254,50.784Z" transform="translate(-1.862 -6.11)" fill="#222"/>
    <path id="Path_132" data-name="Path 132" d="M26.2,10.412h6.318a.862.862,0,0,0,0-1.724H26.2a.862.862,0,0,0,0,1.724Z" transform="translate(-1.356 -0.508)" fill="#222"/>
  </g>
</svg>
