<svg xmlns="http://www.w3.org/2000/svg" width="49.812" height="43.17" viewBox="0 0 49.812 43.17">
  <g id="diamond" transform="translate(0.001 -34.137)">
    <g id="Group_272" data-name="Group 272" transform="translate(-0.001 34.138)">
      <g id="Group_271" data-name="Group 271" transform="translate(0 0)">
        <path id="Path_138" data-name="Path 138" d="M49.618,44.406l-8.3-9.962a.832.832,0,0,0-.638-.3H9.132a.829.829,0,0,0-.638.3l-8.3,9.962A.83.83,0,0,0,.83,45.768H48.98a.83.83,0,0,0,.638-1.361ZM2.6,44.107l6.918-8.3H40.289l6.918,8.3Z" transform="translate(0.001 -34.146)" fill="#222"/>
      </g>
    </g>
    <g id="Group_274" data-name="Group 274" transform="translate(8.302 34.137)">
      <g id="Group_273" data-name="Group 273" transform="translate(0 0)">
        <path id="Path_139" data-name="Path 139" d="M102.714,34.649a.83.83,0,0,0-.767-.512H86.174a.83.83,0,0,0-.717,1.249l5.811,9.962a.831.831,0,0,0,.61.405.917.917,0,0,0,.106.007.831.831,0,0,0,.588-.243l9.962-9.962A.83.83,0,0,0,102.714,34.649ZM92.158,43.581,87.618,35.8H99.942Z" transform="translate(-85.343 -34.137)" fill="#222"/>
      </g>
    </g>
    <g id="Group_276" data-name="Group 276" transform="translate(-0.001 44.098)">
      <g id="Group_275" data-name="Group 275" transform="translate(0 0)">
        <path id="Path_140" data-name="Path 140" d="M49.726,136.99a.83.83,0,0,0-.744-.462H.832a.83.83,0,0,0-.659,1.334l24.075,31.547a.828.828,0,0,0,1.318,0l24.075-31.547A.831.831,0,0,0,49.726,136.99ZM24.908,167.538l-22.4-29.349h44.8Z" transform="translate(-0.002 -136.528)" fill="#222"/>
      </g>
    </g>
    <g id="Group_278" data-name="Group 278" transform="translate(0 44.098)">
      <g id="Group_277" data-name="Group 277" transform="translate(0 0)">
        <path id="Path_141" data-name="Path 141" d="M25.707,168.655l-9.962-31.547a.831.831,0,0,0-.792-.58H.84a.83.83,0,0,0-.659,1.334l24.075,31.547a.829.829,0,0,0,.66.327.807.807,0,0,0,.382-.095A.83.83,0,0,0,25.707,168.655ZM2.518,138.189H14.345l8.348,26.436Z" transform="translate(-0.01 -136.528)" fill="#222"/>
      </g>
    </g>
    <g id="Group_280" data-name="Group 280" transform="translate(24.075 34.137)">
      <g id="Group_279" data-name="Group 279" transform="translate(0 0)">
        <path id="Path_142" data-name="Path 142" d="M264.793,34.554a.829.829,0,0,0-.72-.417H248.3a.83.83,0,0,0-.587,1.417l9.962,9.962a.827.827,0,0,0,.587.243.943.943,0,0,0,.107-.007.83.83,0,0,0,.61-.405l5.811-9.962A.832.832,0,0,0,264.793,34.554Zm-6.705,9.027L250.3,35.8h12.324Z" transform="translate(-247.47 -34.137)" fill="#222"/>
      </g>
    </g>
    <g id="Group_282" data-name="Group 282" transform="translate(24.075 44.1)">
      <g id="Group_281" data-name="Group 281" transform="translate(0 0)">
        <path id="Path_143" data-name="Path 143" d="M273.126,137.008a.83.83,0,0,0-.744-.462H258.269a.83.83,0,0,0-.792.58l-9.962,31.547a.83.83,0,0,0,1.451.754l24.075-31.547A.831.831,0,0,0,273.126,137.008Zm-22.6,27.633,8.348-26.436H270.7Z" transform="translate(-247.476 -136.546)" fill="#222"/>
      </g>
    </g>
  </g>
</svg>
