<svg xmlns="http://www.w3.org/2000/svg" width="46.124" height="46.124" viewBox="0 0 46.124 46.124">
  <g id="noun_account_3536961" transform="translate(-5 -5)">
    <path id="Path_377" data-name="Path 377" d="M28.062,5A23.062,23.062,0,1,0,51.124,28.062,23.1,23.1,0,0,0,28.062,5ZM16.275,45.435V38.824a10.28,10.28,0,0,1,10.25-10.25H29.6a10.28,10.28,0,0,1,10.25,10.25v6.611a20.911,20.911,0,0,1-23.574,0ZM28.062,26.524a6.15,6.15,0,1,1,6.15-6.15A6.168,6.168,0,0,1,28.062,26.524ZM41.9,43.846V38.824a12.269,12.269,0,0,0-9.02-11.838,8.2,8.2,0,1,0-9.635,0,12.269,12.269,0,0,0-9.02,11.838v5.022A21,21,0,1,1,49.074,28.062,20.859,20.859,0,0,1,41.9,43.846Z" fill="#222"/>
  </g>
</svg>
