<svg xmlns="http://www.w3.org/2000/svg" width="49.259" height="28.201" viewBox="0 0 49.259 28.201">
  <g id="noun_Sync_1360323" transform="translate(-6 -24.81)">
    <path id="Path_179" data-name="Path 179" d="M12.947,46.747a6.717,6.717,0,0,0,6.717,6.717h18.9a1.12,1.12,0,0,0,0-2.239h-18.9a4.478,4.478,0,0,1-4.478-4.478V35.972h6.941L14.066,25.84,6,35.972h6.947Zm1.12-17.314,3.415,4.3H10.652Z" transform="translate(0 -0.453)" fill="#222"/>
    <path id="Path_180" data-name="Path 180" d="M60.564,31.527a6.717,6.717,0,0,0-6.717-6.717H34.95a1.12,1.12,0,1,0,0,2.239h18.9a4.478,4.478,0,0,1,4.478,4.478V42.3H51.384l8.055,10.132L67.511,42.3H60.564Zm-1.12,17.314-3.415-4.3h6.829Z" transform="translate(-12.252)" fill="#222"/>
  </g>
</svg>
