<svg xmlns="http://www.w3.org/2000/svg" width="37" height="47.395" viewBox="0 0 37 47.395">
  <g id="noun_Lock_958214" transform="translate(-16.5 -7.6)">
    <g id="Group_816" data-name="Group 816" transform="translate(16.5 7.6)">
      <path id="Path_383" data-name="Path 383" d="M35.294,7.6A11.844,11.844,0,0,0,23.548,19.463v3.7H22.373A5.89,5.89,0,0,0,16.5,29.037V49.122A5.89,5.89,0,0,0,22.373,55H47.627A5.89,5.89,0,0,0,53.5,49.122V29.037a5.89,5.89,0,0,0-5.873-5.873H47.04v-3.7A11.844,11.844,0,0,0,35.294,7.6ZM25.9,19.463a9.4,9.4,0,1,1,18.794,0v3.7H25.9Zm21.73,6.049a3.534,3.534,0,0,1,3.524,3.524V49.122a3.534,3.534,0,0,1-3.524,3.524H22.373a3.534,3.534,0,0,1-3.524-3.524V29.037a3.534,3.534,0,0,1,3.524-3.524Z" transform="translate(-16.5 -7.6)"/>
      <path id="Path_384" data-name="Path 384" d="M47.175,65.973A1.178,1.178,0,0,0,48.349,64.8V61.275a1.175,1.175,0,0,0-2.349,0V64.8A1.178,1.178,0,0,0,47.175,65.973Z" transform="translate(-28.675 -29.267)"/>
    </g>
  </g>
</svg>
