<svg xmlns="http://www.w3.org/2000/svg" width="47.67" height="43.106" viewBox="0 0 47.67 43.106">
  <g id="software" transform="translate(0 -22.5)">
    <path id="Path_152" data-name="Path 152" d="M46.909,22.5H.761A.761.761,0,0,0,0,23.261V64.845a.761.761,0,0,0,.761.761H46.909a.761.761,0,0,0,.761-.761V23.261A.761.761,0,0,0,46.909,22.5Zm-.761,41.584H1.521V24.021H29.667v4.564H3.8a.761.761,0,1,0,0,1.521H43.866a.761.761,0,0,0,0-1.521H31.188V24.021h14.96Z" fill="#222"/>
    <circle id="Ellipse_47" data-name="Ellipse 47" cx="0.5" cy="0.5" r="0.5" transform="translate(38 25.606)" fill="#222"/>
    <circle id="Ellipse_48" data-name="Ellipse 48" cx="0.5" cy="0.5" r="0.5" transform="translate(34 25.606)" fill="#222"/>
    <ellipse id="Ellipse_49" data-name="Ellipse 49" cx="1" cy="0.5" rx="1" ry="0.5" transform="translate(42 25.606)" fill="#222"/>
    <path id="Path_153" data-name="Path 153" d="M185.06,206.676a5.637,5.637,0,1,0,2.58,10.648.761.761,0,0,0-.7-1.352,4.069,4.069,0,0,1-1.883.456,4.116,4.116,0,1,1,4.116-4.116,4.069,4.069,0,0,1-.456,1.882.761.761,0,1,0,1.352.7,5.636,5.636,0,0,0-5.012-8.217Z" transform="translate(-161.225 -165.496)" fill="#222"/>
    <path id="Path_154" data-name="Path 154" d="M130.142,142.121h-3.2a9.621,9.621,0,0,0-.749-1.8l2.264-2.264a.761.761,0,0,0,0-1.076l-2.869-2.869a.761.761,0,0,0-1.076,0l-2.264,2.264a9.624,9.624,0,0,0-1.8-.749v-3.2a.761.761,0,0,0-.761-.761h-4.057a.761.761,0,0,0-.761.761v3.2a9.62,9.62,0,0,0-1.8.749L110.8,134.11a.761.761,0,0,0-1.076,0l-2.869,2.869a.761.761,0,0,0,0,1.076l2.264,2.264a9.625,9.625,0,0,0-.749,1.8h-3.2a.761.761,0,0,0-.761.761v4.057a.761.761,0,0,0,.761.761h3.2a9.612,9.612,0,0,0,.749,1.8l-2.264,2.264a.761.761,0,0,0,0,1.076l2.869,2.869a.761.761,0,0,0,1.076,0l2.264-2.264a9.624,9.624,0,0,0,1.8.749v3.2a.761.761,0,0,0,.761.761h4.057a.761.761,0,0,0,.761-.761v-3.2a9.62,9.62,0,0,0,1.8-.749l2.264,2.264a.761.761,0,0,0,1.076,0l2.869-2.869a.761.761,0,0,0,0-1.076l-2.264-2.264a9.621,9.621,0,0,0,.749-1.8h3.2a.761.761,0,0,0,.761-.761v-4.057A.761.761,0,0,0,130.142,142.121Zm-.761,4.057h-3.023a.761.761,0,0,0-.741.588,8.109,8.109,0,0,1-1.021,2.457.76.76,0,0,0,.108.941l2.14,2.14-1.793,1.793-2.14-2.14a.761.761,0,0,0-.94-.108,8.107,8.107,0,0,1-2.457,1.021.761.761,0,0,0-.588.741v3.023H116.39v-3.023a.761.761,0,0,0-.588-.741,8.109,8.109,0,0,1-2.457-1.021.761.761,0,0,0-.94.108l-2.14,2.14-1.793-1.793,2.14-2.14a.761.761,0,0,0,.108-.941,8.108,8.108,0,0,1-1.021-2.457.761.761,0,0,0-.741-.588h-3.023v-2.536h3.023a.761.761,0,0,0,.741-.588,8.11,8.11,0,0,1,1.021-2.457.761.761,0,0,0-.108-.941l-2.14-2.14,1.793-1.793,2.14,2.14a.761.761,0,0,0,.941.108,8.107,8.107,0,0,1,2.457-1.021.761.761,0,0,0,.588-.741v-3.023h2.536v3.023a.761.761,0,0,0,.588.741,8.11,8.11,0,0,1,2.457,1.021.761.761,0,0,0,.941-.108l2.14-2.14,1.793,1.793-2.14,2.14a.761.761,0,0,0-.108.941,8.107,8.107,0,0,1,1.021,2.457.761.761,0,0,0,.741.588h3.023Z" transform="translate(-93.823 -98.093)" fill="#222"/>
  </g>
</svg>
