<?xml version="1.0" encoding="UTF-8" standalone="no"?>
<!-- Created with Inkscape (http://www.inkscape.org/) -->

<svg
   version="1.1"
   id="svg2"
   xml:space="preserve"
   width="655.54266"
   height="643.85162"
   viewBox="0 0 655.54263 643.85159"
   sodipodi:docname="block_chains.svg"
   inkscape:version="1.1.2 (76b9e6a115, 2022-02-25)"
   xmlns:inkscape="http://www.inkscape.org/namespaces/inkscape"
   xmlns:sodipodi="http://sodipodi.sourceforge.net/DTD/sodipodi-0.dtd"
   xmlns="http://www.w3.org/2000/svg"
   xmlns:svg="http://www.w3.org/2000/svg"><defs
     id="defs6"><clipPath
       clipPathUnits="userSpaceOnUse"
       id="clipPath214"><path
         d="m 4000,1300.11 c -1284,0 -2324.88,147.41 -2324.88,329.25 0,181.84 1040.88,329.25 2324.88,329.25 1283.99,0 2324.88,-147.41 2324.88,-329.25 0,-181.84 -1040.89,-329.25 -2324.88,-329.25"
         id="path212" /></clipPath><radialGradient
       fx="0"
       fy="0"
       cx="0"
       cy="0"
       r="1"
       gradientUnits="userSpaceOnUse"
       gradientTransform="matrix(2324.88,0,0,-329.25,4000,1629.36)"
       spreadMethod="pad"
       id="radialGradient220"><stop
         style="stop-opacity:1;stop-color:#595a5c"
         offset="0"
         id="stop216" /><stop
         style="stop-opacity:1;stop-color:#f6f6f6"
         offset="1"
         id="stop218" /></radialGradient></defs><sodipodi:namedview
     id="namedview4"
     pagecolor="#ffffff"
     bordercolor="#666666"
     borderopacity="1.0"
     inkscape:pageshadow="2"
     inkscape:pageopacity="0.0"
     inkscape:pagecheckerboard="0"
     showgrid="false"
     fit-margin-left="5"
     fit-margin-right="5"
     lock-margins="true"
     fit-margin-top="5"
     fit-margin-bottom="5"
     inkscape:zoom="0.79124994"
     inkscape:cx="343.7599"
     inkscape:cy="185.15009"
     inkscape:window-width="2488"
     inkscape:window-height="1016"
     inkscape:window-x="1992"
     inkscape:window-y="27"
     inkscape:window-maximized="1"
     inkscape:current-layer="g8" /><g
     id="g8"
     inkscape:groupmode="layer"
     inkscape:label="ink_ext_XXXXXX"
     transform="matrix(1.3333333,0,0,-1.3333333,-205.56133,917.70364)"><g
       id="g582"
       transform="matrix(0.85199638,0,0,0.85199638,58.940855,65.194719)"><path
         d="m 589.129,405.381 0.507,0.086 -0.432,0.442 41.1,34.288 -38.942,-125.269 z m -101.515,-175.595 50.398,62.797 50.3,17.833 z M 231.83,286.877 176.104,404.445 279.795,258.817 Z M 193.109,538.274 173.52,414.396 171.005,475.42 Z m 60.737,38.518 -56.84,-31.196 88.757,94.038 z m 162.476,93.235 -70.803,-33.154 -54.611,5.796 z m 203.436,-157.414 -69.173,102.812 44.034,-47.536 z m 2.736,-7.495 8.258,-63.244 -40.981,-34.19 z m -84.96,-211.283 -96.546,86.288 h 0.023 l -0.21,0.184 146.841,24.823 z m 1.112,0.034 49.52,109.989 2.263,-91.629 z m -127.012,-40.983 28.346,126.797 96.747,-86.468 z m 1.054,-0.702 123.588,39.836 -52.065,-64.875 z m -1.536,-0.523 70.739,-24.764 -130.911,-8.372 z m -1.852,0.112 -60.515,-33.314 -65.255,38.173 z M 264.202,380.241 281.12,258.681 174.499,408.424 Z m 219.962,247.932 -136.576,8.565 72.943,34.156 z m 2.025,-0.136 -0.011,0.01 -0.036,0.002 -61.289,41.148 118.098,-47.779 z m 1.319,-1.16 58.778,-6.854 73.852,-109.767 z M 474.609,521.86 587.587,406.135 440.345,381.243 Z M 438.226,380.123 282.175,258.356 265.225,380.146 Z M 287.605,513.102 174.794,411.434 254.507,575.87 Z m 0.596,1.015 -32.911,62.413 89.121,58.45 z m 185.745,9.749 -126.915,111.905 138.39,-8.679 z M 289.033,513.535 345.776,635.543 473.088,523.289 Z m 150.344,-131.972 -0.002,-0.01 -149.889,131.004 184.206,9.763 -34.301,-140.769 z M 288.566,512.032 438.347,381.123 H 265.25 Z m 186.332,11.353 11.468,103.164 134.836,-118.56 -146.244,15.303 0.023,0.097 z M 174.212,409.563 287.481,511.645 264.261,381.271 Z M 410.573,252.725 282.905,257.657 438.887,379.37 Z m 65.089,269.488 146.376,-15.317 -33.641,-100.161 z m -187.593,119.752 56.092,-5.953 -88.643,-58.136 z m -34.981,-66.73 -78.84,-162.635 20.669,130.709 z m 378.705,-133.613 -8.415,64.454 0.752,-0.661 -0.934,2.053 -0.006,0.042 -0.042,0.063 -27.652,60.804 -0.033,0.074 -48.498,52.354 -0.064,0.094 -126.282,51.089 -132.866,-28.984 -0.264,0.028 -0.124,-0.244 -93.373,-98.928 -0.017,-0.108 -23.945,-68.09 -0.031,-0.091 2.719,-66.009 -0.476,-0.429 0.5,-0.157 0.068,-1.636 0.412,0.851 57.77,-121.881 0.066,-0.14 50.151,-29.338 0.081,-0.113 0.104,-0.004 0.029,-0.214 0.151,0.117 67.083,-39.243 135.655,8.675 0.237,-0.083 0.186,0.232 106.449,85.236 0.262,0.092 -0.007,0.282 40.322,129.708 0.032,0.105"
         style="fill:#3b3b3c;fill-opacity:1;fill-rule:nonzero;stroke:none;stroke-width:0.1"
         id="path14" /><path
         d="m 345.105,637.133 -12.537,7.238 -6.172,3.564 v -21.604 l 18.709,-10.801 v 21.603"
         style="fill:#2e2d2d;fill-opacity:1;fill-rule:nonzero;stroke:none;stroke-width:0.1"
         id="path16" /><path
         d="m 346.105,615.53 18.709,10.801 v 21.604 l -6.541,-3.777 -12.168,-7.025 V 615.53"
         style="fill:#2e2d2d;fill-opacity:1;fill-rule:nonzero;stroke:none;stroke-width:0.1"
         id="path18" /><path
         d="m 326.896,648.801 18.709,-10.802 18.709,10.802 -18.709,10.802 -18.709,-10.802"
         style="fill:#2e2d2d;fill-opacity:1;fill-rule:nonzero;stroke:none;stroke-width:0.1"
         id="path20" /><path
         d="m 326.396,647.935 6.172,-3.564 12.537,-7.238 V 615.53 l -18.709,10.801 z m 37.918,0.866 -18.709,-10.802 -18.709,10.802 18.709,10.802 z m 0.5,-0.866 V 626.331 L 346.105,615.53 v 21.603 l 12.168,7.025 z m -18.959,12.678 c -0.154,0.089 -0.346,0.089 -0.5,0 l -19.709,-11.379 c -0.155,-0.089 -0.25,-0.255 -0.25,-0.433 v -22.759 c 0,-0.178 0.095,-0.343 0.25,-0.433 l 19.709,-11.379 0.25,-0.066 0.25,0.066 19.709,11.379 c 0.155,0.09 0.25,0.255 0.25,0.433 v 22.759 c 0,0.178 -0.095,0.344 -0.25,0.433 l -19.709,11.379"
         style="fill:#ccccc9;fill-opacity:1;fill-rule:nonzero;stroke:none;stroke-width:0.1"
         id="path22" /><path
         d="m 621.369,510.346 -12.537,7.238 -6.172,3.563 v -21.603 l 18.709,-10.802 v 21.604"
         style="fill:#2e2d2d;fill-opacity:1;fill-rule:nonzero;stroke:none;stroke-width:0.1"
         id="path24" /><path
         d="m 622.369,488.742 18.709,10.802 v 21.603 l -6.172,-3.563 -12.537,-7.238 v -21.604"
         style="fill:#2e2d2d;fill-opacity:1;fill-rule:nonzero;stroke:none;stroke-width:0.1"
         id="path26" /><path
         d="m 603.16,522.013 18.709,-10.802 18.709,10.802 -18.709,10.802 -18.709,-10.802"
         style="fill:#2e2d2d;fill-opacity:1;fill-rule:nonzero;stroke:none;stroke-width:0.1"
         id="path28" /><path
         d="m 602.66,521.147 6.172,-3.563 12.537,-7.238 v -21.604 l -18.709,10.802 z m 38.418,0 v -21.603 l -18.709,-10.802 v 21.604 l 12.537,7.238 z m -0.5,0.866 -18.709,-10.802 -18.709,10.802 18.709,10.802 z m 1.25,0.433 -19.709,11.38 c -0.154,0.089 -0.346,0.089 -0.5,0 l -19.709,-11.38 c -0.154,-0.089 -0.25,-0.254 -0.25,-0.433 v -22.758 c 0,-0.178 0.096,-0.343 0.25,-0.433 l 19.709,-11.379 0.25,-0.067 0.25,0.067 19.709,11.379 c 0.154,0.09 0.25,0.255 0.25,0.433 v 22.758 c 0,0.179 -0.096,0.344 -0.25,0.433"
         style="fill:#ccccc9;fill-opacity:1;fill-rule:nonzero;stroke:none;stroke-width:0.1"
         id="path30" /><path
         d="m 255.589,578.867 -8.691,5.018 -3.765,2.173 v -14.383 l 12.456,-7.191 v 14.383"
         style="fill:#2e2d2d;fill-opacity:1;fill-rule:nonzero;stroke:none;stroke-width:0.1"
         id="path32" /><path
         d="m 268.545,586.924 -12.456,-7.192 -12.456,7.192 12.456,7.192 z m 0.5,-0.866 v -14.383 l -12.456,-7.191 v 14.383 l 8.692,5.018 z m -25.912,0 3.765,-2.173 8.691,-5.018 v -14.383 l -12.456,7.191 z m 12.706,-22.873 0.25,-0.067 0.25,0.067 13.456,7.769 c 0.155,0.089 0.25,0.254 0.25,0.433 v 15.537 c 0,0.179 -0.095,0.344 -0.25,0.433 l -13.456,7.769 c -0.154,0.089 -0.345,0.089 -0.5,0 l -13.456,-7.769 c -0.154,-0.089 -0.25,-0.254 -0.25,-0.433 v -15.537 c 0,-0.179 0.096,-0.344 0.25,-0.433 l 13.456,-7.769"
         style="fill:#ccccc9;fill-opacity:1;fill-rule:nonzero;stroke:none;stroke-width:0.1"
         id="path34" /><path
         d="m 256.589,564.484 12.456,7.191 v 14.383 l -3.764,-2.173 -8.692,-5.018 v -14.383"
         style="fill:#2e2d2d;fill-opacity:1;fill-rule:nonzero;stroke:none;stroke-width:0.1"
         id="path36" /><path
         d="m 243.633,586.924 12.456,-7.192 12.456,7.192 -12.456,7.192 -12.456,-7.192"
         style="fill:#2e2d2d;fill-opacity:1;fill-rule:nonzero;stroke:none;stroke-width:0.1"
         id="path38" /><path
         d="m 287.292,516.136 -12.537,7.238 -6.172,3.563 v -21.603 l 18.709,-10.801 v 21.603"
         style="fill:#2e2d2d;fill-opacity:1;fill-rule:nonzero;stroke:none;stroke-width:0.1"
         id="path40" /><path
         d="m 288.292,494.533 18.709,10.801 v 21.603 l -6.172,-3.563 -12.537,-7.238 v -21.603"
         style="fill:#2e2d2d;fill-opacity:1;fill-rule:nonzero;stroke:none;stroke-width:0.1"
         id="path42" /><path
         d="m 269.083,527.804 18.709,-10.802 18.709,10.802 -18.709,10.802 -18.709,-10.802"
         style="fill:#2e2d2d;fill-opacity:1;fill-rule:nonzero;stroke:none;stroke-width:0.1"
         id="path44" /><path
         d="m 268.583,526.937 6.172,-3.563 12.537,-7.238 v -21.603 l -18.709,10.801 z m 38.418,0 v -21.603 l -18.709,-10.801 v 21.603 l 12.537,7.238 z m -0.5,0.867 -18.709,-10.802 -18.709,10.802 18.709,10.802 z m -18.459,11.812 c -0.154,0.089 -0.346,0.089 -0.5,0 l -19.709,-11.379 c -0.155,-0.09 -0.25,-0.255 -0.25,-0.433 v -22.758 c 0,-0.179 0.095,-0.344 0.25,-0.433 l 19.709,-11.38 0.25,-0.066 0.25,0.066 19.709,11.38 c 0.155,0.089 0.25,0.254 0.25,0.433 v 22.758 c 0,0.178 -0.095,0.343 -0.25,0.433 l -19.709,11.379"
         style="fill:#ccccc9;fill-opacity:1;fill-rule:nonzero;stroke:none;stroke-width:0.1"
         id="path46" /><path
         d="m 486.144,630.017 -12.436,7.179 -6.274,3.623 v -21.604 l 18.71,-10.801 v 21.603"
         style="fill:#2e2d2d;fill-opacity:1;fill-rule:nonzero;stroke:none;stroke-width:0.1"
         id="path48" /><path
         d="m 487.144,608.414 18.709,10.801 v 21.604 l -5.44,-3.141 -13.269,-7.661 v -21.603"
         style="fill:#2e2d2d;fill-opacity:1;fill-rule:nonzero;stroke:none;stroke-width:0.1"
         id="path50" /><path
         d="m 467.934,641.685 18.71,-10.802 18.709,10.802 -18.709,10.802 -18.71,-10.802"
         style="fill:#2e2d2d;fill-opacity:1;fill-rule:nonzero;stroke:none;stroke-width:0.1"
         id="path52" /><path
         d="m 467.434,640.819 6.274,-3.623 12.436,-7.179 v -21.603 l -18.71,10.801 z m 37.919,0.866 -18.709,-10.802 -18.71,10.802 18.71,10.802 z m 0.5,-0.866 v -21.604 l -18.709,-10.801 v 21.603 l 13.269,7.661 z m -18.959,12.678 c -0.155,0.089 -0.346,0.089 -0.5,0 l -19.71,-11.379 c -0.155,-0.089 -0.25,-0.254 -0.25,-0.433 v -22.758 c 0,-0.179 0.095,-0.344 0.25,-0.433 l 19.71,-11.379 0.25,-0.067 0.25,0.067 19.709,11.379 c 0.154,0.089 0.25,0.254 0.25,0.433 v 22.758 c 0,0.179 -0.096,0.344 -0.25,0.433 l -19.709,11.379"
         style="fill:#ccccc9;fill-opacity:1;fill-rule:nonzero;stroke:none;stroke-width:0.1"
         id="path54" /><path
         d="m 439.179,382.754 -27.228,15.721 v -31.44 l 27.228,-15.721 v 31.44"
         style="fill:#2e2d2d;fill-opacity:1;fill-rule:nonzero;stroke:none;stroke-width:0.1"
         id="path56" /><path
         d="m 440.179,351.314 27.228,15.721 v 31.44 l -27.228,-15.721 v -31.44"
         style="fill:#2e2d2d;fill-opacity:1;fill-rule:nonzero;stroke:none;stroke-width:0.1"
         id="path58" /><path
         d="m 412.451,399.341 27.228,-15.721 27.228,15.721 -27.228,15.72 -27.228,-15.72"
         style="fill:#2e2d2d;fill-opacity:1;fill-rule:nonzero;stroke:none;stroke-width:0.1"
         id="path60" /><path
         d="m 467.407,367.035 -27.228,-15.721 v 31.44 l 27.228,15.721 z m -55.456,31.44 27.228,-15.721 v -31.44 l -27.228,15.721 z m 54.956,0.866 -27.228,-15.721 -27.228,15.721 27.228,15.72 z m -26.978,16.73 c -0.155,0.089 -0.346,0.089 -0.5,0 l -28.228,-16.297 c -0.154,-0.089 -0.25,-0.254 -0.25,-0.433 v -32.595 c 0,-0.179 0.096,-0.344 0.25,-0.433 l 28.228,-16.297 0.25,-0.068 0.25,0.068 28.228,16.297 c 0.155,0.089 0.25,0.254 0.25,0.433 v 32.595 c 0,0.179 -0.095,0.344 -0.25,0.433 l -28.228,16.297"
         style="fill:#ccccc9;fill-opacity:1;fill-rule:nonzero;stroke:none;stroke-width:0.1"
         id="path62" /><path
         d="m 264.153,384.921 -18.709,10.802 V 374.12 l 18.709,-10.802 v 21.603"
         style="fill:#2e2d2d;fill-opacity:1;fill-rule:nonzero;stroke:none;stroke-width:0.1"
         id="path64" /><path
         d="m 283.862,395.723 -18.709,-10.802 v -21.603 l 18.709,10.802 v 21.603"
         style="fill:#2e2d2d;fill-opacity:1;fill-rule:nonzero;stroke:none;stroke-width:0.1"
         id="path66" /><path
         d="m 245.444,395.723 18.709,-10.802 v -21.603 l -18.709,10.802 z m 37.918,0.866 -18.709,-10.802 -18.709,10.802 18.709,10.802 z m -18.209,-11.668 18.709,10.802 V 374.12 l -18.709,-10.802 z m 19.709,-11.09 v 22.758 c 0,0.179 -0.095,0.344 -0.25,0.432 l -19.709,11.38 c -0.154,0.089 -0.345,0.089 -0.5,0 l -19.709,-11.38 c -0.154,-0.088 -0.25,-0.253 -0.25,-0.432 v -22.758 c 0,-0.179 0.096,-0.344 0.25,-0.433 l 19.709,-11.378 0.25,-0.068 0.25,0.068 19.709,11.378 c 0.155,0.089 0.25,0.254 0.25,0.433"
         style="fill:#ccccc9;fill-opacity:1;fill-rule:nonzero;stroke:none;stroke-width:0.1"
         id="path68" /><path
         d="m 264.653,385.787 18.709,10.802 -18.709,10.802 -18.709,-10.802 18.709,-10.802"
         style="fill:#2e2d2d;fill-opacity:1;fill-rule:nonzero;stroke:none;stroke-width:0.1"
         id="path70" /><path
         d="m 172.727,409.06 -9.066,5.234 -4.74,2.736 v -15.941 l 13.806,-7.971 v 15.942"
         style="fill:#2e2d2d;fill-opacity:1;fill-rule:nonzero;stroke:none;stroke-width:0.1"
         id="path72" /><path
         d="m 173.727,393.118 13.805,7.971 v 15.941 l -4.358,-2.517 -9.447,-5.453 v -15.942"
         style="fill:#2e2d2d;fill-opacity:1;fill-rule:nonzero;stroke:none;stroke-width:0.1"
         id="path74" /><path
         d="m 159.421,417.896 13.806,-7.971 13.805,7.971 -13.805,7.97 -13.806,-7.97"
         style="fill:#2e2d2d;fill-opacity:1;fill-rule:nonzero;stroke:none;stroke-width:0.1"
         id="path76" /><path
         d="m 158.921,417.03 4.74,-2.736 9.066,-5.234 v -15.942 l -13.806,7.971 z m 28.111,0.866 -13.805,-7.971 -13.806,7.971 13.806,7.97 z m 0.5,-0.866 v -15.941 l -13.805,-7.971 v 15.942 l 9.447,5.453 z m -14.055,9.846 c -0.154,0.089 -0.346,0.089 -0.5,0 l -14.806,-8.547 c -0.154,-0.089 -0.25,-0.254 -0.25,-0.433 V 400.8 c 0,-0.178 0.096,-0.343 0.25,-0.433 l 14.806,-8.548 0.25,-0.067 0.25,0.067 14.805,8.548 c 0.155,0.09 0.25,0.255 0.25,0.433 v 17.096 c 0,0.179 -0.095,0.344 -0.25,0.433 l -14.805,8.547"
         style="fill:#ccccc9;fill-opacity:1;fill-rule:nonzero;stroke:none;stroke-width:0.1"
         id="path78" /><path
         d="m 483.955,229.748 -13.805,7.97 v -15.94 l 13.805,-7.97 v 15.94"
         style="fill:#2e2d2d;fill-opacity:1;fill-rule:nonzero;stroke:none;stroke-width:0.1"
         id="path80" /><path
         d="m 484.955,213.808 13.806,7.97 v 15.94 l -13.806,-7.97 v -15.94"
         style="fill:#2e2d2d;fill-opacity:1;fill-rule:nonzero;stroke:none;stroke-width:0.1"
         id="path82" /><path
         d="m 470.65,238.584 13.805,-7.97 13.806,7.97 -13.806,7.971 -13.805,-7.971"
         style="fill:#2e2d2d;fill-opacity:1;fill-rule:nonzero;stroke:none;stroke-width:0.1"
         id="path84" /><path
         d="m 498.761,221.778 -13.806,-7.97 v 15.94 l 13.806,7.97 z m -28.611,15.94 13.805,-7.97 v -15.94 l -13.805,7.97 z m 14.305,-7.104 -13.805,7.97 13.805,7.971 13.806,-7.971 z m 15.056,8.403 -14.806,8.547 c -0.154,0.09 -0.346,0.09 -0.5,0 L 469.4,239.017 c -0.154,-0.089 -0.25,-0.254 -0.25,-0.433 v -17.095 c 0,-0.178 0.096,-0.343 0.25,-0.432 l 14.805,-8.548 0.25,-0.068 0.25,0.068 14.806,8.548 c 0.154,0.089 0.25,0.254 0.25,0.432 v 17.095 c 0,0.179 -0.096,0.344 -0.25,0.433"
         style="fill:#ccccc9;fill-opacity:1;fill-rule:nonzero;stroke:none;stroke-width:0.1"
         id="path86" /><path
         d="m 537.21,296.231 -13.806,7.971 v -15.94 l 13.806,-7.971 v 15.94"
         style="fill:#2e2d2d;fill-opacity:1;fill-rule:nonzero;stroke:none;stroke-width:0.1"
         id="path88" /><path
         d="m 538.21,280.291 13.806,7.971 v 15.94 l -13.806,-7.971 v -15.94"
         style="fill:#2e2d2d;fill-opacity:1;fill-rule:nonzero;stroke:none;stroke-width:0.1"
         id="path90" /><path
         d="m 523.904,305.068 13.806,-7.97 13.806,7.97 -13.806,7.971 -13.806,-7.971"
         style="fill:#2e2d2d;fill-opacity:1;fill-rule:nonzero;stroke:none;stroke-width:0.1"
         id="path92" /><path
         d="m 552.016,288.262 -13.806,-7.971 v 15.94 l 13.806,7.971 z m -28.612,15.94 13.806,-7.971 v -15.94 l -13.806,7.971 z m 14.306,-7.104 -13.806,7.97 13.806,7.971 13.806,-7.971 z m 15.056,8.403 -14.806,8.548 c -0.154,0.09 -0.346,0.09 -0.5,0 l -14.806,-8.548 c -0.154,-0.089 -0.25,-0.254 -0.25,-0.433 v -17.095 c 0,-0.179 0.096,-0.344 0.25,-0.433 l 14.806,-8.548 0.25,-0.067 0.25,0.067 14.806,8.548 c 0.154,0.089 0.25,0.254 0.25,0.433 v 17.095 c 0,0.179 -0.096,0.344 -0.25,0.433"
         style="fill:#ccccc9;fill-opacity:1;fill-rule:nonzero;stroke:none;stroke-width:0.1"
         id="path94" /><path
         d="m 473.837,525.299 -9.066,5.235 -4.74,2.736 v -15.941 l 13.806,-7.971 v 15.941"
         style="fill:#2e2d2d;fill-opacity:1;fill-rule:nonzero;stroke:none;stroke-width:0.1"
         id="path96" /><path
         d="m 488.142,534.136 -13.805,-7.971 -13.806,7.971 13.806,7.97 z m 0.5,-0.866 v -15.941 l -13.805,-7.971 v 15.941 l 9.882,5.706 z m -28.611,0 4.74,-2.736 9.066,-5.235 v -15.941 l -13.806,7.971 z m 14.056,-25.211 0.25,-0.067 0.25,0.067 14.805,8.548 c 0.154,0.089 0.25,0.254 0.25,0.433 v 17.096 c 0,0.178 -0.096,0.343 -0.25,0.433 l -14.805,8.548 c -0.154,0.089 -0.346,0.089 -0.5,0 l -14.806,-8.548 c -0.154,-0.09 -0.25,-0.255 -0.25,-0.433 V 517.04 c 0,-0.179 0.096,-0.344 0.25,-0.433 l 14.806,-8.548"
         style="fill:#ccccc9;fill-opacity:1;fill-rule:nonzero;stroke:none;stroke-width:0.1"
         id="path98" /><path
         d="m 474.837,509.358 13.805,7.971 v 15.941 l -3.923,-2.265 -9.882,-5.706 v -15.941"
         style="fill:#2e2d2d;fill-opacity:1;fill-rule:nonzero;stroke:none;stroke-width:0.1"
         id="path100" /><path
         d="m 460.531,534.136 13.806,-7.971 13.805,7.971 -13.805,7.97 -13.806,-7.97"
         style="fill:#2e2d2d;fill-opacity:1;fill-rule:nonzero;stroke:none;stroke-width:0.1"
         id="path102" /><path
         d="m 588.111,407.088 -8.51,4.913 -5.295,3.057 v -15.941 l 13.805,-7.971 v 15.942"
         style="fill:#2e2d2d;fill-opacity:1;fill-rule:nonzero;stroke:none;stroke-width:0.1"
         id="path104" /><path
         d="m 589.111,391.146 13.805,7.971 v 15.941 l -4.642,-2.68 -9.163,-5.29 v -15.942"
         style="fill:#2e2d2d;fill-opacity:1;fill-rule:nonzero;stroke:none;stroke-width:0.1"
         id="path106" /><path
         d="m 574.806,415.924 13.805,-7.97 13.805,7.97 -13.805,7.971 -13.805,-7.971"
         style="fill:#2e2d2d;fill-opacity:1;fill-rule:nonzero;stroke:none;stroke-width:0.1"
         id="path108" /><path
         d="m 574.306,415.058 5.295,-3.057 8.51,-4.913 v -15.942 l -13.805,7.971 z m 28.61,0 v -15.941 l -13.805,-7.971 v 15.942 l 9.163,5.29 z m -0.5,0.866 -13.805,-7.97 -13.805,7.97 13.805,7.971 z m -13.555,8.981 c -0.154,0.089 -0.345,0.089 -0.5,0 l -14.805,-8.548 c -0.155,-0.089 -0.25,-0.254 -0.25,-0.433 v -17.096 c 0,-0.179 0.095,-0.344 0.25,-0.432 l 14.805,-8.548 0.25,-0.068 0.25,0.068 14.805,8.548 c 0.154,0.088 0.25,0.253 0.25,0.432 v 17.096 c 0,0.179 -0.096,0.344 -0.25,0.433 l -14.805,8.548"
         style="fill:#ccccc9;fill-opacity:1;fill-rule:nonzero;stroke:none;stroke-width:0.1"
         id="path110" /><path
         d="m 168.013,476.68 -5.491,3.17 -2.485,1.435 v -9.21 l 7.976,-4.604 v 9.209"
         style="fill:#2e2d2d;fill-opacity:1;fill-rule:nonzero;stroke:none;stroke-width:0.1"
         id="path112" /><path
         d="m 176.489,482.151 -7.976,-4.605 -7.976,4.605 7.976,4.605 z m -16.452,-0.866 2.485,-1.435 5.491,-3.17 v -9.209 l -7.976,4.604 z m 16.952,0 v -9.21 l -7.976,-4.604 v 9.209 l 5.136,2.966 z m -8.726,-15.114 0.25,-0.067 0.25,0.067 8.976,5.183 c 0.155,0.089 0.25,0.254 0.25,0.433 v 10.364 c 0,0.179 -0.095,0.344 -0.25,0.433 l -8.976,5.182 c -0.155,0.089 -0.346,0.089 -0.5,0 l -8.976,-5.182 c -0.155,-0.089 -0.25,-0.254 -0.25,-0.433 v -10.364 c 0,-0.179 0.095,-0.344 0.25,-0.433 l 8.976,-5.183"
         style="fill:#ccccc9;fill-opacity:1;fill-rule:nonzero;stroke:none;stroke-width:0.1"
         id="path114" /><path
         d="m 169.013,467.471 7.976,4.604 v 9.21 l -2.84,-1.639 -5.136,-2.966 v -9.209"
         style="fill:#2e2d2d;fill-opacity:1;fill-rule:nonzero;stroke:none;stroke-width:0.1"
         id="path116" /><path
         d="m 160.537,482.151 7.976,-4.605 7.976,4.605 -7.976,4.605 -7.976,-4.605"
         style="fill:#2e2d2d;fill-opacity:1;fill-rule:nonzero;stroke:none;stroke-width:0.1"
         id="path118" /><path
         d="m 281.8,259.773 -7.976,4.605 v -9.209 l 7.976,-4.605 v 9.209"
         style="fill:#2e2d2d;fill-opacity:1;fill-rule:nonzero;stroke:none;stroke-width:0.1"
         id="path120" /><path
         d="m 282.8,250.564 7.976,4.605 v 9.209 l -7.976,-4.605 v -9.209"
         style="fill:#2e2d2d;fill-opacity:1;fill-rule:nonzero;stroke:none;stroke-width:0.1"
         id="path122" /><path
         d="m 282.3,260.64 7.976,4.604 -7.976,4.606 -7.976,-4.606 7.976,-4.604"
         style="fill:#2e2d2d;fill-opacity:1;fill-rule:nonzero;stroke:none;stroke-width:0.1"
         id="path124" /><path
         d="m 290.776,255.169 -7.976,-4.605 v 9.209 l 7.976,4.605 z m -16.952,9.209 7.976,-4.605 v -9.209 l -7.976,4.605 z m 16.452,0.866 -7.976,-4.604 -7.976,4.604 7.976,4.606 z m 1.25,0.433 -8.976,5.182 c -0.154,0.09 -0.345,0.09 -0.5,0 l -8.976,-5.182 c -0.155,-0.089 -0.25,-0.254 -0.25,-0.433 V 254.88 c 0,-0.179 0.095,-0.344 0.25,-0.433 l 8.976,-5.181 0.25,-0.068 0.25,0.068 8.976,5.181 c 0.155,0.089 0.25,0.254 0.25,0.433 v 10.364 c 0,0.179 -0.095,0.344 -0.25,0.433"
         style="fill:#ccccc9;fill-opacity:1;fill-rule:nonzero;stroke:none;stroke-width:0.1"
         id="path126" /><path
         d="m 348.555,219.714 -7.976,4.604 v -9.208 l 7.976,-4.605 v 9.209"
         style="fill:#2e2d2d;fill-opacity:1;fill-rule:nonzero;stroke:none;stroke-width:0.1"
         id="path128" /><path
         d="m 349.555,210.505 7.975,4.605 v 9.208 l -7.975,-4.604 v -9.209"
         style="fill:#2e2d2d;fill-opacity:1;fill-rule:nonzero;stroke:none;stroke-width:0.1"
         id="path130" /><path
         d="m 349.055,220.58 7.975,4.605 -7.975,4.605 -7.976,-4.605 7.976,-4.605"
         style="fill:#2e2d2d;fill-opacity:1;fill-rule:nonzero;stroke:none;stroke-width:0.1"
         id="path132" /><path
         d="m 357.53,215.11 -7.975,-4.605 v 9.209 l 7.975,4.604 z m -16.951,9.208 7.976,-4.604 v -9.209 l -7.976,4.605 z m 16.451,0.867 -7.975,-4.605 -7.976,4.605 7.976,4.605 z m 1.25,0.432 -8.975,5.183 c -0.155,0.09 -0.346,0.09 -0.5,0 l -8.976,-5.183 c -0.155,-0.089 -0.25,-0.254 -0.25,-0.432 v -10.364 c 0,-0.178 0.095,-0.343 0.25,-0.432 l 8.976,-5.183 0.25,-0.067 0.25,0.067 8.975,5.183 c 0.155,0.089 0.25,0.254 0.25,0.432 v 10.364 c 0,0.178 -0.095,0.343 -0.25,0.432"
         style="fill:#ccccc9;fill-opacity:1;fill-rule:nonzero;stroke:none;stroke-width:0.1"
         id="path134" /><path
         d="m 193.962,544.41 -5.491,3.17 -2.485,1.434 v -9.209 l 7.976,-4.604 v 9.209"
         style="fill:#2e2d2d;fill-opacity:1;fill-rule:nonzero;stroke:none;stroke-width:0.1"
         id="path136" /><path
         d="m 194.962,535.201 7.976,4.604 v 9.209 l -2.485,-1.434 -5.491,-3.17 v -9.209"
         style="fill:#2e2d2d;fill-opacity:1;fill-rule:nonzero;stroke:none;stroke-width:0.1"
         id="path138" /><path
         d="m 186.486,549.88 7.976,-4.605 7.976,4.605 -7.976,4.605 -7.976,-4.605"
         style="fill:#2e2d2d;fill-opacity:1;fill-rule:nonzero;stroke:none;stroke-width:0.1"
         id="path140" /><path
         d="m 185.986,549.014 2.485,-1.434 5.491,-3.17 v -9.209 l -7.976,4.604 z m 16.952,0 v -9.209 l -7.976,-4.604 v 9.209 l 5.491,3.17 z m -0.5,0.866 -7.976,-4.605 -7.976,4.605 7.976,4.605 z m -7.726,5.616 c -0.154,0.088 -0.346,0.088 -0.5,0 l -8.976,-5.183 c -0.154,-0.089 -0.25,-0.254 -0.25,-0.433 v -10.363 c 0,-0.179 0.096,-0.344 0.25,-0.434 l 8.976,-5.182 0.25,-0.067 0.25,0.067 8.976,5.182 c 0.154,0.09 0.25,0.255 0.25,0.434 v 10.363 c 0,0.179 -0.096,0.344 -0.25,0.433 l -8.976,5.183"
         style="fill:#ccccc9;fill-opacity:1;fill-rule:nonzero;stroke:none;stroke-width:0.1"
         id="path142" /><path
         d="m 546.072,620.668 -5.49,3.17 -2.485,1.434 v -9.209 l 7.975,-4.605 v 9.21"
         style="fill:#2e2d2d;fill-opacity:1;fill-rule:nonzero;stroke:none;stroke-width:0.1"
         id="path144" /><path
         d="m 547.072,611.458 7.976,4.605 v 9.209 l -2.485,-1.434 -5.491,-3.17 v -9.21"
         style="fill:#2e2d2d;fill-opacity:1;fill-rule:nonzero;stroke:none;stroke-width:0.1"
         id="path146" /><path
         d="m 538.597,626.139 7.975,-4.605 7.976,4.605 -7.976,4.605 -7.975,-4.605"
         style="fill:#2e2d2d;fill-opacity:1;fill-rule:nonzero;stroke:none;stroke-width:0.1"
         id="path148" /><path
         d="m 538.097,625.272 2.485,-1.434 5.49,-3.17 v -9.21 l -7.975,4.605 z m 16.951,0 v -9.209 l -7.976,-4.605 v 9.21 l 5.491,3.17 z m -0.5,0.867 -7.976,-4.605 -7.975,4.605 7.975,4.605 z m -7.726,5.615 c -0.154,0.089 -0.345,0.089 -0.5,0 l -8.975,-5.182 c -0.155,-0.09 -0.25,-0.255 -0.25,-0.433 v -10.365 c 0,-0.178 0.095,-0.343 0.25,-0.433 l 8.975,-5.182 0.25,-0.067 0.25,0.067 8.976,5.182 c 0.154,0.09 0.25,0.255 0.25,0.433 v 10.365 c 0,0.178 -0.096,0.343 -0.25,0.433 l -8.976,5.182"
         style="fill:#ccccc9;fill-opacity:1;fill-rule:nonzero;stroke:none;stroke-width:0.1"
         id="path150" /><path
         d="m 594.906,570.676 -5.49,3.17 -2.485,1.434 v -9.209 l 7.975,-4.605 v 9.21"
         style="fill:#2e2d2d;fill-opacity:1;fill-rule:nonzero;stroke:none;stroke-width:0.1"
         id="path152" /><path
         d="m 603.382,576.146 -7.976,-4.604 -7.975,4.604 7.975,4.605 z m 0.5,-0.866 v -9.209 l -7.976,-4.605 v 9.21 l 5.49,3.17 z m -16.951,0 2.485,-1.434 5.49,-3.17 v -9.21 l -7.975,4.605 z m 8.225,-15.113 0.25,-0.067 0.25,0.067 8.976,5.182 c 0.154,0.089 0.25,0.255 0.25,0.433 v 10.364 c 0,0.179 -0.096,0.344 -0.25,0.434 l -8.976,5.182 c -0.154,0.089 -0.345,0.089 -0.5,0 l -8.975,-5.182 c -0.155,-0.09 -0.25,-0.255 -0.25,-0.434 v -10.364 c 0,-0.178 0.095,-0.344 0.25,-0.433 l 8.975,-5.182"
         style="fill:#ccccc9;fill-opacity:1;fill-rule:nonzero;stroke:none;stroke-width:0.1"
         id="path154" /><path
         d="m 595.906,561.466 7.976,4.605 v 9.209 l -2.486,-1.434 -5.49,-3.17 v -9.21"
         style="fill:#2e2d2d;fill-opacity:1;fill-rule:nonzero;stroke:none;stroke-width:0.1"
         id="path156" /><path
         d="m 587.431,576.146 7.975,-4.604 7.976,4.604 -7.976,4.605 -7.975,-4.605"
         style="fill:#2e2d2d;fill-opacity:1;fill-rule:nonzero;stroke:none;stroke-width:0.1"
         id="path158" /><path
         d="m 590.657,313.327 -7.975,4.605 v -9.209 l 7.975,-4.605 v 9.209"
         style="fill:#2e2d2d;fill-opacity:1;fill-rule:nonzero;stroke:none;stroke-width:0.1"
         id="path160" /><path
         d="m 591.657,304.118 7.976,4.605 v 9.209 l -7.976,-4.605 v -9.209"
         style="fill:#2e2d2d;fill-opacity:1;fill-rule:nonzero;stroke:none;stroke-width:0.1"
         id="path162" /><path
         d="m 591.157,314.193 7.976,4.605 -7.976,4.605 -7.975,-4.605 7.975,-4.605"
         style="fill:#2e2d2d;fill-opacity:1;fill-rule:nonzero;stroke:none;stroke-width:0.1"
         id="path164" /><path
         d="m 599.633,308.723 -7.976,-4.605 v 9.209 l 7.976,4.605 z m -16.951,9.209 7.975,-4.605 v -9.209 l -7.975,4.605 z m 16.451,0.866 -7.976,-4.605 -7.975,4.605 7.975,4.605 z m 1.25,0.432 -8.976,5.183 c -0.154,0.09 -0.345,0.09 -0.5,0 l -8.975,-5.183 c -0.155,-0.088 -0.25,-0.253 -0.25,-0.432 v -10.364 c 0,-0.179 0.095,-0.344 0.25,-0.433 l 8.975,-5.182 0.25,-0.067 0.25,0.067 8.976,5.182 c 0.154,0.089 0.25,0.254 0.25,0.433 v 10.364 c 0,0.179 -0.096,0.344 -0.25,0.432"
         style="fill:#ccccc9;fill-opacity:1;fill-rule:nonzero;stroke:none;stroke-width:0.1"
         id="path166" /><path
         d="m 630.783,443.208 -5.49,3.17 -2.485,1.434 v -9.209 l 7.975,-4.604 v 9.209"
         style="fill:#2e2d2d;fill-opacity:1;fill-rule:nonzero;stroke:none;stroke-width:0.1"
         id="path168" /><path
         d="m 631.783,433.999 7.977,4.604 v 9.209 l -3.129,-1.806 -4.848,-2.798 v -9.209"
         style="fill:#2e2d2d;fill-opacity:1;fill-rule:nonzero;stroke:none;stroke-width:0.1"
         id="path170" /><path
         d="m 623.308,448.679 7.975,-4.605 7.977,4.605 -7.977,4.605 -7.975,-4.605"
         style="fill:#2e2d2d;fill-opacity:1;fill-rule:nonzero;stroke:none;stroke-width:0.1"
         id="path172" /><path
         d="m 622.808,447.812 2.485,-1.434 5.49,-3.17 v -9.209 l -7.975,4.604 z m 16.452,0.867 -7.977,-4.605 -7.975,4.605 7.975,4.605 z m 0.5,-0.867 v -9.209 l -7.977,-4.604 v 9.209 l 4.848,2.798 z m -8.227,6.482 c -0.154,0.089 -0.345,0.089 -0.5,0 l -8.975,-5.182 c -0.155,-0.09 -0.25,-0.255 -0.25,-0.433 v -10.365 c 0,-0.178 0.095,-0.343 0.25,-0.433 l 8.975,-5.182 0.25,-0.067 0.25,0.067 8.977,5.182 c 0.154,0.09 0.25,0.255 0.25,0.433 v 10.365 c 0,0.178 -0.096,0.343 -0.25,0.433 l -8.977,5.182"
         style="fill:#ccccc9;fill-opacity:1;fill-rule:nonzero;stroke:none;stroke-width:0.1"
         id="path174" /><path
         d="m 287.292,643.726 -5.491,3.17 -2.485,1.434 v -9.209 l 7.976,-4.605 v 9.21"
         style="fill:#2e2d2d;fill-opacity:1;fill-rule:nonzero;stroke:none;stroke-width:0.1"
         id="path176" /><path
         d="m 295.768,649.196 -7.976,-4.605 -7.976,4.605 7.976,4.605 z m 0.5,-0.866 v -9.209 l -7.976,-4.605 v 9.21 l 5.491,3.17 z m -16.952,0 2.485,-1.434 5.491,-3.17 v -9.21 l -7.976,4.605 z m 8.226,-15.113 0.25,-0.067 0.25,0.067 8.976,5.182 c 0.154,0.089 0.25,0.254 0.25,0.433 v 10.364 c 0,0.179 -0.096,0.344 -0.25,0.433 l -8.976,5.183 c -0.154,0.088 -0.346,0.088 -0.5,0 l -8.976,-5.183 c -0.154,-0.089 -0.25,-0.254 -0.25,-0.433 v -10.364 c 0,-0.179 0.096,-0.344 0.25,-0.433 l 8.976,-5.182"
         style="fill:#ccccc9;fill-opacity:1;fill-rule:nonzero;stroke:none;stroke-width:0.1"
         id="path178" /><path
         d="m 288.292,634.516 7.976,4.605 v 9.209 l -2.485,-1.434 -5.491,-3.17 v -9.21"
         style="fill:#2e2d2d;fill-opacity:1;fill-rule:nonzero;stroke:none;stroke-width:0.1"
         id="path180" /><path
         d="m 279.816,649.196 7.976,-4.605 7.976,4.605 -7.976,4.605 -7.976,-4.605"
         style="fill:#2e2d2d;fill-opacity:1;fill-rule:nonzero;stroke:none;stroke-width:0.1"
         id="path182" /><path
         d="m 420.075,673.375 -5.49,3.17 -2.485,1.434 v -9.209 l 7.975,-4.604 v 9.209"
         style="fill:#2e2d2d;fill-opacity:1;fill-rule:nonzero;stroke:none;stroke-width:0.1"
         id="path184" /><path
         d="m 428.551,678.846 -7.976,-4.605 -7.975,4.605 7.975,4.605 z m 0.5,-0.867 v -9.209 l -7.976,-4.604 v 9.209 l 5.49,3.17 z m -16.951,0 2.485,-1.434 5.49,-3.17 v -9.209 l -7.975,4.604 z m 8.225,-15.113 0.25,-0.067 0.25,0.067 8.976,5.182 c 0.154,0.09 0.25,0.255 0.25,0.433 v 10.365 c 0,0.178 -0.096,0.343 -0.25,0.433 l -8.976,5.182 c -0.154,0.089 -0.346,0.089 -0.5,0 l -8.975,-5.182 c -0.155,-0.09 -0.25,-0.255 -0.25,-0.433 v -10.365 c 0,-0.178 0.095,-0.343 0.25,-0.433 l 8.975,-5.182"
         style="fill:#ccccc9;fill-opacity:1;fill-rule:nonzero;stroke:none;stroke-width:0.1"
         id="path186" /><path
         d="m 421.075,664.166 7.976,4.604 v 9.209 l -2.486,-1.434 -5.49,-3.17 v -9.209"
         style="fill:#2e2d2d;fill-opacity:1;fill-rule:nonzero;stroke:none;stroke-width:0.1"
         id="path188" /><path
         d="m 412.6,678.846 7.975,-4.605 7.976,4.605 -7.976,4.605 -7.975,-4.605"
         style="fill:#2e2d2d;fill-opacity:1;fill-rule:nonzero;stroke:none;stroke-width:0.1"
         id="path190" /><path
         d="m 410.951,255.903 -18.709,10.802 v -21.602 l 18.709,-10.802 v 21.602"
         style="fill:#2e2d2d;fill-opacity:1;fill-rule:nonzero;stroke:none;stroke-width:0.1"
         id="path192" /><path
         d="m 411.951,234.301 18.709,10.802 v 21.602 l -18.709,-10.802 v -21.602"
         style="fill:#2e2d2d;fill-opacity:1;fill-rule:nonzero;stroke:none;stroke-width:0.1"
         id="path194" /><path
         d="m 411.451,256.77 18.709,10.801 -18.709,10.803 -18.709,-10.803 18.709,-10.801"
         style="fill:#2e2d2d;fill-opacity:1;fill-rule:nonzero;stroke:none;stroke-width:0.1"
         id="path196" /><path
         d="m 430.66,245.103 -18.709,-10.802 v 21.602 l 18.709,10.802 z m -38.418,21.602 18.709,-10.802 v -21.602 l -18.709,10.802 z m 37.918,0.866 -18.709,-10.801 -18.709,10.801 18.709,10.803 z m 1.25,0.433 -19.709,11.38 c -0.154,0.09 -0.346,0.09 -0.5,0 l -19.709,-11.38 c -0.155,-0.089 -0.25,-0.254 -0.25,-0.433 v -22.758 c 0,-0.178 0.095,-0.343 0.25,-0.432 l 19.709,-11.379 0.25,-0.067 0.25,0.067 19.709,11.379 c 0.154,0.089 0.25,0.254 0.25,0.432 v 22.758 c 0,0.179 -0.096,0.344 -0.25,0.433"
         style="fill:#ccccc9;fill-opacity:1;fill-rule:nonzero;stroke:none;stroke-width:0.1"
         id="path198" /><path
         d="m 230.433,286.288 -18.71,10.802 v -21.603 l 18.71,-10.802 v 21.603"
         style="fill:#2e2d2d;fill-opacity:1;fill-rule:nonzero;stroke:none;stroke-width:0.1"
         id="path200" /><path
         d="m 250.142,297.09 -18.709,-10.802 v -21.603 l 18.709,10.802 v 21.603"
         style="fill:#2e2d2d;fill-opacity:1;fill-rule:nonzero;stroke:none;stroke-width:0.1"
         id="path202" /><path
         d="m 230.933,287.154 18.709,10.802 -18.709,10.802 -18.71,-10.802 18.71,-10.802"
         style="fill:#2e2d2d;fill-opacity:1;fill-rule:nonzero;stroke:none;stroke-width:0.1"
         id="path204" /><path
         d="m 211.723,297.09 18.71,-10.802 v -21.603 l -18.71,10.802 z m 37.919,0.866 -18.709,-10.802 -18.71,10.802 18.71,10.802 z m -18.209,-11.668 18.709,10.802 v -21.603 l -18.709,-10.802 z m 19.459,12.101 -19.709,11.379 c -0.155,0.089 -0.346,0.089 -0.5,0 l -19.71,-11.379 c -0.155,-0.089 -0.25,-0.254 -0.25,-0.433 v -22.758 c 0,-0.178 0.095,-0.344 0.25,-0.432 l 19.71,-11.38 0.25,-0.068 0.25,0.068 19.709,11.38 c 0.154,0.088 0.25,0.254 0.25,0.432 v 22.758 c 0,0.179 -0.096,0.344 -0.25,0.433"
         style="fill:#ccccc9;fill-opacity:1;fill-rule:nonzero;stroke:none;stroke-width:0.1"
         id="path206" /></g></g></svg>
