<svg height="512pt" viewBox="0 0 512 512" width="512pt" xmlns="http://www.w3.org/2000/svg"><path d="m351.679688 35.269531-30.027344 119.953125 30.027344 119.949219 128.425781-81.867187c0-77.839844-55.101563-142.808594-128.425781-158.035157zm0 0" fill="#00aa63"/><path d="m318.695312 31.894531h-62.695312l-120 199.734375 156.285156 81.402344 59.394532-37.859375v-239.902344c-10.648438-2.210937-21.679688-3.375-32.984376-3.375zm0 0" fill="#00cc76"/><path d="m256 253.636719v-253.636719c-90.824219 0-169.03125 54.03125-204.230469 131.703125l84.230469 99.925781zm0 0" fill="#a5e887"/><path d="m318.464844 504.324219c111.191406-27.878907 193.535156-128.484375 193.535156-248.324219v-64.644531c-92.621094 0-173.894531 48.59375-219.714844 121.675781l-25.285156 93.078125zm0 0" fill="#a5e887"/><path d="m0 127.570312c178.347656 0 322.925781 144.578126 322.925781 322.925782 0 18.339844-1.527343 36.320312-4.464843 53.824218l.003906.003907c-19.992188 5.015625-40.917969 7.675781-62.464844 7.675781-141.386719 0-256-114.613281-256-256zm0 0" fill="#d6fc7e"/></svg>