<svg xmlns="http://www.w3.org/2000/svg" width="67" height="67" viewBox="0 0 67 67">
  <g id="Group_870" data-name="Group 870" transform="translate(-393 -2264)">
    <rect id="Rectangle_312" data-name="Rectangle 312" width="67" height="67" rx="33.5" transform="translate(393 2264)" fill="#f4f7fe"/>
    <g id="light_energy_power_idea-1320568118348636054_0" data-name="light+energy+power+idea-1320568118348636054_0" transform="translate(395.482 2266.024)">
      <path id="Path_402" data-name="Path 402" d="M29,45.17h6.043a1.888,1.888,0,0,1,1.888,1.888h0a1.888,1.888,0,0,1-1.888,1.888H29" transform="translate(-0.439 -1.842)" fill="none" stroke="#2052eb" stroke-linecap="round" stroke-linejoin="round" stroke-width="2"/>
      <circle id="Ellipse_109" data-name="Ellipse 109" cx="0.944" cy="0.944" r="0.944" transform="translate(30.449 49.644)" fill="#2052eb"/>
      <path id="Path_403" data-name="Path 403" d="M33.065,34.625a4.022,4.022,0,0,1,.132-2.54,12.114,12.114,0,0,1,1.53-2.266c1.426-2-4.721-1.662-5.429-1.549a5.221,5.221,0,0,0-.6.132c-1.369.4-.746,1.539-.123,2.332a5.25,5.25,0,0,1,1.416,2.323,4.032,4.032,0,0,1-1.841,3.852c-1.634,1.171-3.39.661-4.721-.727a9.291,9.291,0,0,1-2.294-6.458A10.245,10.245,0,1,1,31.393,39.96H28.561a1.888,1.888,0,1,0,0,3.777h6.062" transform="translate(0 -0.409)" fill="none" stroke="#2052eb" stroke-linecap="round" stroke-linejoin="round" stroke-width="2"/>
      <line id="Line_17" data-name="Line 17" y2="3.805" transform="translate(31.393 12.14)" fill="none" stroke="#2052eb" stroke-linecap="round" stroke-linejoin="round" stroke-width="2"/>
      <line id="Line_18" data-name="Line 18" x1="1.785" y2="3.371" transform="translate(38.286 14.283)" fill="none" stroke="#2052eb" stroke-linecap="round" stroke-linejoin="round" stroke-width="2"/>
      <line id="Line_19" data-name="Line 19" x2="1.737" y2="3.39" transform="translate(22.961 14.18)" fill="none" stroke="#2052eb" stroke-linecap="round" stroke-linejoin="round" stroke-width="2"/>
    </g>
  </g>
</svg>
