<svg xmlns="http://www.w3.org/2000/svg" width="620.331" height="619.367" viewBox="0 0 620.331 619.367">
  <g id="Group_697" data-name="Group 697" transform="translate(-906.885 -164.966)">
    <path id="blob" d="M425.026,10.125c29.065,59.768,16.784,133.453,22.515,198.952,5.322,65.5,29.065,122.81,21.7,187.9s-45.03,137.957-96.2,142.05c-50.761,4.094-114.623-60.177-185.443-91.7C116.363,415.4,38.174,417.036-15.862,377.737-70.308,338.847-100.6,259.43-70.717,207.849c29.884-51.171,119.944-74.5,184.215-128.132C177.768,26.5,216.658-57.011,271.1-75.842S395.961-49.233,425.026,10.125Z" transform="translate(989.356 245.119)" fill="#f4f7fe"/>
    <g id="undraw_all_the_data_h4ki" transform="translate(975 239.2)">
      <ellipse id="Ellipse_98" data-name="Ellipse 98" cx="71.207" cy="9.241" rx="71.207" ry="9.241" transform="translate(409.803 391.159)" fill="#3f3d56"/>
      <rect id="Rectangle_182" data-name="Rectangle 182" width="214.97" height="134.11" transform="translate(0 14.066)" fill="#f2f2f2"/>
      <rect id="Rectangle_183" data-name="Rectangle 183" width="214.97" height="134.11" transform="translate(13.559 1)" fill="none" stroke="#3f3d56" stroke-miterlimit="10" stroke-width="2"/>
      <path id="Path_256" data-name="Path 256" d="M318.772,156.218A46.347,46.347,0,0,0,286,77.1v46.347Z" transform="translate(-164.71 -55.638)" fill="#3f3d56"/>
      <path id="Path_257" data-name="Path 257" d="M238.343,77.1a46.352,46.352,0,0,0-22.171,87.055l22.171-40.708Z" transform="translate(-117.053 -55.638)" fill="#6c63ff"/>
      <path id="Path_258" data-name="Path 258" d="M295.976,203.872,263.2,171.1l-22.171,40.708a46.371,46.371,0,0,0,54.944-7.936Z" transform="translate(-141.913 -103.291)" fill="#575a89"/>
      <rect id="Rectangle_184" data-name="Rectangle 184" width="8.875" height="8.875" transform="translate(21.694 107.252)" fill="#6c63ff"/>
      <rect id="Rectangle_185" data-name="Rectangle 185" width="8.875" height="8.875" transform="translate(34.514 107.252)" fill="#3f3d56"/>
      <rect id="Rectangle_186" data-name="Rectangle 186" width="8.875" height="8.875" transform="translate(47.333 107.252)" fill="#575a89"/>
      <rect id="Rectangle_187" data-name="Rectangle 187" width="36.486" height="1.479" transform="translate(175.033 109.225)" fill="#3f3d56"/>
      <rect id="Rectangle_188" data-name="Rectangle 188" width="36.486" height="1.479" transform="translate(175.033 113.662)" fill="#3f3d56"/>
      <rect id="Rectangle_189" data-name="Rectangle 189" width="36.486" height="1.479" transform="translate(175.033 118.099)" fill="#3f3d56"/>
      <rect id="Rectangle_190" data-name="Rectangle 190" width="122.276" height="134.11" transform="translate(67.548 200.932)" fill="#f2f2f2"/>
      <rect id="Rectangle_191" data-name="Rectangle 191" width="122.276" height="134.11" transform="translate(79.874 188.113)" fill="none" stroke="#3f3d56" stroke-miterlimit="10" stroke-width="2"/>
      <rect id="Rectangle_192" data-name="Rectangle 192" width="6.593" height="6.593" transform="translate(86.284 307.093)" fill="#6c63ff"/>
      <rect id="Rectangle_193" data-name="Rectangle 193" width="6.593" height="6.593" transform="translate(95.807 307.093)" fill="#3f3d56"/>
      <rect id="Rectangle_194" data-name="Rectangle 194" width="6.593" height="6.593" transform="translate(105.33 307.093)" fill="#575a89"/>
      <rect id="Rectangle_195" data-name="Rectangle 195" width="25.639" height="1.039" transform="translate(160.241 309.956)" fill="#3f3d56"/>
      <rect id="Rectangle_196" data-name="Rectangle 196" width="25.639" height="1.039" transform="translate(160.241 313.074)" fill="#3f3d56"/>
      <rect id="Rectangle_197" data-name="Rectangle 197" width="25.639" height="1.039" transform="translate(160.241 316.192)" fill="#3f3d56"/>
      <path id="Path_259" data-name="Path 259" d="M326,463.1v10.847A32.541,32.541,0,0,1,349.01,529.5l7.67,7.67A43.388,43.388,0,0,0,326,463.1Z" transform="translate(-184.988 -251.321)" fill="#3f3d56"/>
      <path id="Path_260" data-name="Path 260" d="M329.687,605.439l-7.67-7.67a32.533,32.533,0,0,1-42.7,2.9l-6.565,8.639A43.387,43.387,0,0,0,329.687,605.439Z" transform="translate(-157.994 -319.591)" fill="#575a89"/>
      <path id="Path_261" data-name="Path 261" d="M248.844,506.488a32.541,32.541,0,0,1,32.541-32.541V463.1a43.388,43.388,0,0,0-26.253,77.932l6.565-8.639A32.484,32.484,0,0,1,248.844,506.488Z" transform="translate(-140.373 -251.321)" fill="#6c63ff"/>
      <path id="Path_262" data-name="Path 262" d="M945.029,173.647s-2.012,14.945,3.161,16.669,3.736,14.945,3.736,14.945l-15.519,11.783-13.8,1.15-3.449-17.819,2.012-4.6s7.76-9.2,2.3-18.681S945.029,173.647,945.029,173.647Z" transform="translate(-485.692 -103.623)" fill="#ffb9b9"/>
      <path id="Path_263" data-name="Path 263" d="M945.029,173.647s-2.012,14.945,3.161,16.669,3.736,14.945,3.736,14.945l-15.519,11.783-13.8,1.15-3.449-17.819,2.012-4.6s7.76-9.2,2.3-18.681S945.029,173.647,945.029,173.647Z" transform="translate(-485.692 -103.623)" opacity="0.1"/>
      <path id="Path_264" data-name="Path 264" d="M881.607,332.472,863.5,375.007s-14.082-8.047-22.417-7.185-18.681-9.2-18.681-9.2l10.346-50.007L852,255.45l26.728,16.956Z" transform="translate(-436.639 -146.053)" fill="#575a89"/>
      <path id="Path_265" data-name="Path 265" d="M881.607,332.472,863.5,375.007s-14.082-8.047-22.417-7.185-18.681-9.2-18.681-9.2l10.346-50.007L852,255.45l26.728,16.956Z" transform="translate(-436.639 -146.053)" opacity="0.1"/>
      <path id="Path_266" data-name="Path 266" d="M946.889,741.344v13.8H933.956l2.012-16.094Z" transform="translate(-473.469 -374.152)" fill="#575a89"/>
      <path id="Path_267" data-name="Path 267" d="M1016.565,695.328l9.484,5.748-6.9,15.807-7.185-.862-6.9-9.771Z" transform="translate(-509.52 -351.989)" fill="#575a89"/>
      <path id="Path_268" data-name="Path 268" d="M950.494,403.505l16.956,39.948s-6.035,44.259-5.748,48,.575,5.173-.862,8.335-2.012,5.173-1.15,8.909,1.15,5.173.575,6.61-4.6,60.641-6.61,64.664,1.15,10.634-.862,11.209-16.956-.862-17.819-4.311,2.874-11.783.862-14.37.287-95.7-2.587-102.026S898.763,458.4,898.763,458.4s-2.874-18.393-1.15-21.267,4.024-20.98,4.024-20.98Z" transform="translate(-474.487 -221.109)" fill="#2f2e41"/>
      <path id="Path_269" data-name="Path 269" d="M968.965,797.29s8.047-9.484,14.945,0c0,0,.575,11.208,5.461,13.508s2.587,11.5-4.311,11.783-15.807,1.437-16.094-2.3,1.15-6.035-1.437-7.185,0-7.76,0-7.76Z" transform="translate(-509.627 -418.601)" fill="#2f2e41"/>
      <path id="Path_270" data-name="Path 270" d="M935.9,511.179s-.287,20.693-2.3,23.567-3.161,4.6-2.012,7.76,2.874,8.909,2.012,10.059.862,7.185.862,7.185,22.13,10.634,32.476,32.763c0,0,10.634,17.531,13.8,17.819s6.9-2.012,5.173,4.6-8.335,15.232-13.22,14.37-8.622-9.2-8.622-9.2-38.224-38.8-42.247-39.948S906.3,569.808,904.285,564.06s-6.323-53.743-4.311-56.9,9.484-7.472,9.484-7.472Z" transform="translate(-475.699 -269.867)" fill="#2f2e41"/>
      <path id="Path_271" data-name="Path 271" d="M1063.143,727.6s17.819.575,18.106,4.886-7.472,29.889-6.323,35.925-8.909,19.83-15.52,16.956-1.437-17.819-1.437-17.819-6.61-20.405-5.461-20.693,12.646-3.736,12.071-7.185S1063.143,727.6,1063.143,727.6Z" transform="translate(-553.223 -385.407)" fill="#2f2e41"/>
      <circle id="Ellipse_99" data-name="Ellipse 99" cx="17.819" cy="17.819" r="17.819" transform="translate(428.155 49.762)" fill="#ffb9b9"/>
      <path id="Path_272" data-name="Path 272" d="M929.534,218.259s-9.772,10.346-16.956,8.622S901.656,212.8,901.656,212.8l-12.933-2.3s-9.2,40.81-9.2,44.834,9.2,47.421,9.2,55.18-7.472,12.358,4.023,12.071,6.035-4.024,22.7-4.311,19.256,3.449,22.7-2.587a48.085,48.085,0,0,1,8.622-10.634l-6.035-21.267-.862-60.066s-7.368-14.37-10.725-13.22C929.155,210.5,930.971,216.822,929.534,218.259Z" transform="translate(-465.598 -123.232)" fill="#6c63ff"/>
      <path id="Path_273" data-name="Path 273" d="M971.205,205.411s15.323,1.68,19.634,4.841,16.382,5.461,16.094,7.76-14.083,35.062-14.083,35.062-6.323,25.866-.862,31.9,25.866,71.849,22.417,77.31-14.37-16.669-14.37-16.669-14.657-47.421-22.7-55.468-8.622-51.444-8.622-53.456S971.205,205.411,971.205,205.411Z" transform="translate(-510.809 -120.686)" fill="#575a89"/>
      <path id="Path_274" data-name="Path 274" d="M868.54,207.109s-18.881-7.114-25.491-4.24a46.29,46.29,0,0,1-10.634,3.449l-2.3,28.165s-.862,40.523-8.334,50.295-12.358,50.582-11.208,54.605-2.012,10.921,2.874,9.2,18.393-41.385,18.393-41.385,0-22.7,8.047-29.027,21.267-32.476,21.842-38.8,6.035-23.854,6.035-23.854Z" transform="translate(-430.557 -119.05)" fill="#575a89"/>
      <path id="Path_275" data-name="Path 275" d="M1024.978,389.545s-8.622,16.094-9.772,18.968-9.2,22.417-20.693,18.106,11.208-25.291,11.208-25.291L1010.9,383.8S1024.4,380.923,1024.978,389.545Z" transform="translate(-522.244 -210.885)" fill="#ffb9b9"/>
      <path id="Path_276" data-name="Path 276" d="M805.749,208.585h-2.874a6.617,6.617,0,0,0-6.323-.862c-3.449,1.437-11.5-.575-11.5.287s-8.909-2.587-12.646-.862-17.244,2.3-17.244,2.3-5.461,13.8-1.724,16.382,9.2.575,11.783,2.587,7.472-.287,9.2,2.3,8.047,7.185,9.484,4.311-1.437-5.461,4.6-2.3,15.519,3.161,15.519,3.161Z" transform="translate(-401.017 -121.318)" fill="#575a89"/>
      <path id="Path_277" data-name="Path 277" d="M928.623,126.505c-2.411-.557-4.914.06-7.356.46s-5.134.532-7.2-.83a11.384,11.384,0,0,1-3.344-4.273,4.918,4.918,0,0,1-.719-1.885,4.389,4.389,0,0,1,1.45-3.144c3.716-4.085,9.147-6.321,14.623-7.031a25.265,25.265,0,0,1,13.352,1.631,17.469,17.469,0,0,1,9.365,9.4,26.686,26.686,0,0,1,1.4,6.711,20.048,20.048,0,0,1,.094,5.082,21.8,21.8,0,0,1-.985,3.682l-2.707,8.175a5.386,5.386,0,0,1-1.065,2.107,1.842,1.842,0,0,1-2.157.473,6.711,6.711,0,0,0,.1-2.712,2.288,2.288,0,0,0-1.806-1.821c-1-.106-1.85.668-2.8,1a3.441,3.441,0,0,1-4.344-2.586,12.749,12.749,0,0,0-.253-2.813c-.415-1.028-1.516-1.567-2.343-2.306a5.392,5.392,0,0,1-1.479-5.6c.221-.68.847-.99.721-1.771C931.006,127.423,929.494,126.706,928.623,126.505Z" transform="translate(-481.043 -72.089)" fill="#2f2e41"/>
      <rect id="Rectangle_198" data-name="Rectangle 198" width="122.276" height="134.11" transform="translate(249.976 117.113)" fill="#f2f2f2"/>
      <rect id="Rectangle_199" data-name="Rectangle 199" width="122.276" height="134.11" transform="translate(262.303 104.294)" fill="none" stroke="#3f3d56" stroke-miterlimit="10" stroke-width="2"/>
      <path id="Path_278" data-name="Path 278" d="M556,227.5V330.054h99.1" transform="translate(-281.864 -114.824)" fill="none" stroke="#3f3d56" stroke-miterlimit="10" stroke-width="2"/>
      <rect id="Rectangle_200" data-name="Rectangle 200" width="22.187" height="35.5" transform="translate(279.559 179.238)" fill="#575a89"/>
      <rect id="Rectangle_201" data-name="Rectangle 201" width="22.187" height="59.659" transform="translate(311.608 155.078)" fill="#3f3d56"/>
      <rect id="Rectangle_202" data-name="Rectangle 202" width="22.187" height="87.763" transform="translate(343.656 126.974)" fill="#6c63ff"/>
      <rect id="Rectangle_203" data-name="Rectangle 203" width="6.593" height="6.593" transform="translate(272.657 223.274)" fill="#6c63ff"/>
      <rect id="Rectangle_204" data-name="Rectangle 204" width="6.593" height="6.593" transform="translate(282.18 223.274)" fill="#3f3d56"/>
      <rect id="Rectangle_205" data-name="Rectangle 205" width="6.593" height="6.593" transform="translate(291.703 223.274)" fill="#575a89"/>
      <rect id="Rectangle_206" data-name="Rectangle 206" width="25.639" height="1.039" transform="translate(346.614 226.137)" fill="#3f3d56"/>
      <rect id="Rectangle_207" data-name="Rectangle 207" width="25.639" height="1.039" transform="translate(346.614 229.256)" fill="#3f3d56"/>
      <rect id="Rectangle_208" data-name="Rectangle 208" width="25.639" height="1.039" transform="translate(346.614 232.374)" fill="#3f3d56"/>
      <path id="Path_279" data-name="Path 279" d="M755.027,212.273a9.158,9.158,0,0,1,8.567,10.195c-.514,4.724-2.408,10.6-8.376,12.861-10.634,4.024-10.059-18.681-8.047-19.543C748.512,215.211,750.62,212.082,755.027,212.273Z" transform="translate(-397.907 -124.16)" fill="#ffb9b9"/>
      <path id="Path_280" data-name="Path 280" d="M1024.457,227.854l3.161,1.535s6.9,14.082,7.185,16.094,4.886,9.484,3.161,11.5-4.311,7.185-2.587,9.2,5.748,10.059,5.748,12.933-4.311,10.634-1.437,11.5,2.012,12.071,1.437,12.933-8.047,14.945-8.047,14.945-1.437-16.094-15.52-9.484c0,0-1.15-8.047,0-8.622s4.024-4.024,1.724-4.6-5.461-7.472-4.886-8.335,2.012-2.012.575-2.874-2.587-5.748-2.3-6.61-3.161-4.886-3.161-4.886Z" transform="translate(-531.494 -132.063)" fill="#575a89"/>
    </g>
  </g>
</svg>
