<svg xmlns="http://www.w3.org/2000/svg" width="21" height="51" viewBox="0 0 21 51">
  <g id="Group_263" data-name="Group 263" transform="translate(394.11 -256.745) rotate(90)">
    <path id="Rectangle_84" data-name="Rectangle 84" d="M0,0H0A21,21,0,0,1,21,21v0a0,0,0,0,1,0,0H0a0,0,0,0,1,0,0V0A0,0,0,0,1,0,0Z" transform="translate(286.745 373.11)" fill="#2052eb"/>
    <path id="Rectangle_87" data-name="Rectangle 87" d="M0,0H21a0,0,0,0,1,0,0V0A21,21,0,0,1,0,21H0a0,0,0,0,1,0,0V0A0,0,0,0,1,0,0Z" transform="translate(277.745 373.11) rotate(90)" fill="#0d276b"/>
  </g>
</svg>
